ISO-10303-21;
HEADER;
/* Generated by software containing ST-Developer
 * from STEP Tools, Inc. (www.steptools.com) 
 */

FILE_DESCRIPTION(
/* description */ (''),
/* implementation_level */ '2;1');

FILE_NAME(
/* name */ 'USB-GC-Cover-Slim.step',
/* time_stamp */ '2026-01-08T20:11:47+01:00',
/* author */ (''),
/* organization */ (''),
/* preprocessor_version */ 'ST-DEVELOPER v20.1',
/* originating_system */ 'Autodesk Translation Framework v14.21.0.0',
/* authorisation */ '');

FILE_SCHEMA (('AUTOMOTIVE_DESIGN { 1 0 10303 214 3 1 1 }'));
ENDSEC;

DATA;
#10=MECHANICAL_DESIGN_GEOMETRIC_PRESENTATION_REPRESENTATION('',(#13),#1498);
#11=SHAPE_REPRESENTATION_RELATIONSHIP('SRR','None',#1504,#12);
#12=ADVANCED_BREP_SHAPE_REPRESENTATION('',(#14),#1497);
#13=STYLED_ITEM('',(#1513),#14);
#14=MANIFOLD_SOLID_BREP('Body29',#878);
#15=FACE_BOUND('',#296,.T.);
#16=FACE_BOUND('',#317,.T.);
#17=FACE_BOUND('',#318,.T.);
#18=FACE_BOUND('',#337,.T.);
#19=PLANE('',#899);
#20=PLANE('',#902);
#21=PLANE('',#907);
#22=PLANE('',#908);
#23=PLANE('',#909);
#24=PLANE('',#910);
#25=PLANE('',#911);
#26=PLANE('',#912);
#27=PLANE('',#921);
#28=PLANE('',#924);
#29=PLANE('',#925);
#30=PLANE('',#926);
#31=PLANE('',#930);
#32=PLANE('',#934);
#33=PLANE('',#935);
#34=PLANE('',#936);
#35=PLANE('',#937);
#36=PLANE('',#938);
#37=PLANE('',#943);
#38=PLANE('',#945);
#39=PLANE('',#947);
#40=PLANE('',#949);
#41=PLANE('',#951);
#42=PLANE('',#954);
#43=PLANE('',#955);
#44=PLANE('',#956);
#45=PLANE('',#957);
#46=PLANE('',#960);
#47=PLANE('',#963);
#48=LINE('',#1256,#135);
#49=LINE('',#1257,#136);
#50=LINE('',#1268,#137);
#51=LINE('',#1269,#138);
#52=LINE('',#1277,#139);
#53=LINE('',#1278,#140);
#54=LINE('',#1281,#141);
#55=LINE('',#1284,#142);
#56=LINE('',#1287,#143);
#57=LINE('',#1288,#144);
#58=LINE('',#1291,#145);
#59=LINE('',#1296,#146);
#60=LINE('',#1300,#147);
#61=LINE('',#1304,#148);
#62=LINE('',#1308,#149);
#63=LINE('',#1313,#150);
#64=LINE('',#1315,#151);
#65=LINE('',#1317,#152);
#66=LINE('',#1318,#153);
#67=LINE('',#1321,#154);
#68=LINE('',#1323,#155);
#69=LINE('',#1324,#156);
#70=LINE('',#1327,#157);
#71=LINE('',#1329,#158);
#72=LINE('',#1330,#159);
#73=LINE('',#1332,#160);
#74=LINE('',#1333,#161);
#75=LINE('',#1340,#162);
#76=LINE('',#1344,#163);
#77=LINE('',#1348,#164);
#78=LINE('',#1352,#165);
#79=LINE('',#1356,#166);
#80=LINE('',#1359,#167);
#81=LINE('',#1362,#168);
#82=LINE('',#1365,#169);
#83=LINE('',#1368,#170);
#84=LINE('',#1369,#171);
#85=LINE('',#1373,#172);
#86=LINE('',#1376,#173);
#87=LINE('',#1378,#174);
#88=LINE('',#1379,#175);
#89=LINE('',#1382,#176);
#90=LINE('',#1384,#177);
#91=LINE('',#1385,#178);
#92=LINE('',#1388,#179);
#93=LINE('',#1390,#180);
#94=LINE('',#1391,#181);
#95=LINE('',#1397,#182);
#96=LINE('',#1400,#183);
#97=LINE('',#1402,#184);
#98=LINE('',#1403,#185);
#99=LINE('',#1409,#186);
#100=LINE('',#1412,#187);
#101=LINE('',#1414,#188);
#102=LINE('',#1415,#189);
#103=LINE('',#1418,#190);
#104=LINE('',#1420,#191);
#105=LINE('',#1421,#192);
#106=LINE('',#1423,#193);
#107=LINE('',#1424,#194);
#108=LINE('',#1431,#195);
#109=LINE('',#1433,#196);
#110=LINE('',#1435,#197);
#111=LINE('',#1438,#198);
#112=LINE('',#1442,#199);
#113=LINE('',#1445,#200);
#114=LINE('',#1446,#201);
#115=LINE('',#1448,#202);
#116=LINE('',#1450,#203);
#117=LINE('',#1452,#204);
#118=LINE('',#1454,#205);
#119=LINE('',#1456,#206);
#120=LINE('',#1458,#207);
#121=LINE('',#1462,#208);
#122=LINE('',#1463,#209);
#123=LINE('',#1466,#210);
#124=LINE('',#1469,#211);
#125=LINE('',#1472,#212);
#126=LINE('',#1474,#213);
#127=LINE('',#1475,#214);
#128=LINE('',#1478,#215);
#129=LINE('',#1479,#216);
#130=LINE('',#1482,#217);
#131=LINE('',#1483,#218);
#132=LINE('',#1487,#219);
#133=LINE('',#1490,#220);
#134=LINE('',#1491,#221);
#135=VECTOR('',#978,10.);
#136=VECTOR('',#979,10.);
#137=VECTOR('',#992,10.);
#138=VECTOR('',#993,10.);
#139=VECTOR('',#1004,10.);
#140=VECTOR('',#1005,10.);
#141=VECTOR('',#1008,10.);
#142=VECTOR('',#1011,10.);
#143=VECTOR('',#1014,10.);
#144=VECTOR('',#1015,10.);
#145=VECTOR('',#1018,10.);
#146=VECTOR('',#1023,10.);
#147=VECTOR('',#1026,10.);
#148=VECTOR('',#1029,10.);
#149=VECTOR('',#1032,10.);
#150=VECTOR('',#1037,10.);
#151=VECTOR('',#1038,10.);
#152=VECTOR('',#1039,10.);
#153=VECTOR('',#1040,10.);
#154=VECTOR('',#1043,10.);
#155=VECTOR('',#1044,10.);
#156=VECTOR('',#1045,10.);
#157=VECTOR('',#1048,10.);
#158=VECTOR('',#1049,10.);
#159=VECTOR('',#1050,10.);
#160=VECTOR('',#1053,10.);
#161=VECTOR('',#1054,10.);
#162=VECTOR('',#1061,10.);
#163=VECTOR('',#1064,10.);
#164=VECTOR('',#1067,10.);
#165=VECTOR('',#1070,10.);
#166=VECTOR('',#1073,10.);
#167=VECTOR('',#1076,10.);
#168=VECTOR('',#1079,10.);
#169=VECTOR('',#1082,10.);
#170=VECTOR('',#1085,10.);
#171=VECTOR('',#1086,10.);
#172=VECTOR('',#1091,10.);
#173=VECTOR('',#1094,10.);
#174=VECTOR('',#1095,10.);
#175=VECTOR('',#1096,10.);
#176=VECTOR('',#1099,10.);
#177=VECTOR('',#1100,10.);
#178=VECTOR('',#1101,10.);
#179=VECTOR('',#1104,10.);
#180=VECTOR('',#1105,10.);
#181=VECTOR('',#1106,10.);
#182=VECTOR('',#1113,10.);
#183=VECTOR('',#1116,10.);
#184=VECTOR('',#1117,10.);
#185=VECTOR('',#1118,10.);
#186=VECTOR('',#1125,10.);
#187=VECTOR('',#1128,10.);
#188=VECTOR('',#1129,10.);
#189=VECTOR('',#1130,10.);
#190=VECTOR('',#1133,10.);
#191=VECTOR('',#1134,10.);
#192=VECTOR('',#1135,10.);
#193=VECTOR('',#1138,10.);
#194=VECTOR('',#1139,10.);
#195=VECTOR('',#1146,10.);
#196=VECTOR('',#1147,10.);
#197=VECTOR('',#1148,10.);
#198=VECTOR('',#1151,10.);
#199=VECTOR('',#1154,10.);
#200=VECTOR('',#1159,10.);
#201=VECTOR('',#1160,10.);
#202=VECTOR('',#1163,10.);
#203=VECTOR('',#1166,10.);
#204=VECTOR('',#1169,10.);
#205=VECTOR('',#1172,10.);
#206=VECTOR('',#1175,10.);
#207=VECTOR('',#1178,10.);
#208=VECTOR('',#1183,10.);
#209=VECTOR('',#1184,10.);
#210=VECTOR('',#1187,10.);
#211=VECTOR('',#1192,10.);
#212=VECTOR('',#1195,10.);
#213=VECTOR('',#1196,10.);
#214=VECTOR('',#1197,10.);
#215=VECTOR('',#1200,10.);
#216=VECTOR('',#1201,10.);
#217=VECTOR('',#1204,10.);
#218=VECTOR('',#1205,10.);
#219=VECTOR('',#1210,10.);
#220=VECTOR('',#1213,10.);
#221=VECTOR('',#1214,10.);
#222=CYLINDRICAL_SURFACE('',#884,0.1);
#223=CYLINDRICAL_SURFACE('',#890,0.1);
#224=CYLINDRICAL_SURFACE('',#896,0.1);
#225=CYLINDRICAL_SURFACE('',#897,0.499999999999999);
#226=CYLINDRICAL_SURFACE('',#900,4.80000549138208);
#227=CYLINDRICAL_SURFACE('',#919,1.35);
#228=CYLINDRICAL_SURFACE('',#922,1.35);
#229=CYLINDRICAL_SURFACE('',#927,2.35);
#230=CYLINDRICAL_SURFACE('',#931,2.34999999999999);
#231=CYLINDRICAL_SURFACE('',#944,1.65);
#232=CYLINDRICAL_SURFACE('',#946,1.65);
#233=CYLINDRICAL_SURFACE('',#948,1.65);
#234=CYLINDRICAL_SURFACE('',#950,1.65);
#235=CYLINDRICAL_SURFACE('',#952,0.49999999999998);
#236=CYLINDRICAL_SURFACE('',#958,2.00000000000001);
#237=CYLINDRICAL_SURFACE('',#961,2.00000000000001);
#238=FACE_OUTER_BOUND('',#286,.T.);
#239=FACE_OUTER_BOUND('',#287,.T.);
#240=FACE_OUTER_BOUND('',#288,.T.);
#241=FACE_OUTER_BOUND('',#289,.T.);
#242=FACE_OUTER_BOUND('',#290,.T.);
#243=FACE_OUTER_BOUND('',#291,.T.);
#244=FACE_OUTER_BOUND('',#292,.T.);
#245=FACE_OUTER_BOUND('',#293,.T.);
#246=FACE_OUTER_BOUND('',#294,.T.);
#247=FACE_OUTER_BOUND('',#295,.T.);
#248=FACE_OUTER_BOUND('',#297,.T.);
#249=FACE_OUTER_BOUND('',#298,.T.);
#250=FACE_OUTER_BOUND('',#299,.T.);
#251=FACE_OUTER_BOUND('',#300,.T.);
#252=FACE_OUTER_BOUND('',#301,.T.);
#253=FACE_OUTER_BOUND('',#302,.T.);
#254=FACE_OUTER_BOUND('',#303,.T.);
#255=FACE_OUTER_BOUND('',#304,.T.);
#256=FACE_OUTER_BOUND('',#305,.T.);
#257=FACE_OUTER_BOUND('',#306,.T.);
#258=FACE_OUTER_BOUND('',#307,.T.);
#259=FACE_OUTER_BOUND('',#308,.T.);
#260=FACE_OUTER_BOUND('',#309,.T.);
#261=FACE_OUTER_BOUND('',#310,.T.);
#262=FACE_OUTER_BOUND('',#311,.T.);
#263=FACE_OUTER_BOUND('',#312,.T.);
#264=FACE_OUTER_BOUND('',#313,.T.);
#265=FACE_OUTER_BOUND('',#314,.T.);
#266=FACE_OUTER_BOUND('',#315,.T.);
#267=FACE_OUTER_BOUND('',#316,.T.);
#268=FACE_OUTER_BOUND('',#319,.T.);
#269=FACE_OUTER_BOUND('',#320,.T.);
#270=FACE_OUTER_BOUND('',#321,.T.);
#271=FACE_OUTER_BOUND('',#322,.T.);
#272=FACE_OUTER_BOUND('',#323,.T.);
#273=FACE_OUTER_BOUND('',#324,.T.);
#274=FACE_OUTER_BOUND('',#325,.T.);
#275=FACE_OUTER_BOUND('',#326,.T.);
#276=FACE_OUTER_BOUND('',#327,.T.);
#277=FACE_OUTER_BOUND('',#328,.T.);
#278=FACE_OUTER_BOUND('',#329,.T.);
#279=FACE_OUTER_BOUND('',#330,.T.);
#280=FACE_OUTER_BOUND('',#331,.T.);
#281=FACE_OUTER_BOUND('',#332,.T.);
#282=FACE_OUTER_BOUND('',#333,.T.);
#283=FACE_OUTER_BOUND('',#334,.T.);
#284=FACE_OUTER_BOUND('',#335,.T.);
#285=FACE_OUTER_BOUND('',#336,.T.);
#286=EDGE_LOOP('',(#579,#580,#581,#582));
#287=EDGE_LOOP('',(#583,#584,#585,#586));
#288=EDGE_LOOP('',(#587,#588,#589,#590));
#289=EDGE_LOOP('',(#591,#592,#593,#594));
#290=EDGE_LOOP('',(#595,#596,#597,#598));
#291=EDGE_LOOP('',(#599,#600,#601,#602));
#292=EDGE_LOOP('',(#603,#604,#605,#606));
#293=EDGE_LOOP('',(#607,#608,#609,#610));
#294=EDGE_LOOP('',(#611,#612,#613,#614));
#295=EDGE_LOOP('',(#615,#616,#617,#618,#619,#620));
#296=EDGE_LOOP('',(#621,#622,#623,#624,#625,#626,#627,#628));
#297=EDGE_LOOP('',(#629,#630,#631,#632));
#298=EDGE_LOOP('',(#633,#634,#635,#636));
#299=EDGE_LOOP('',(#637,#638,#639,#640));
#300=EDGE_LOOP('',(#641,#642,#643,#644));
#301=EDGE_LOOP('',(#645,#646,#647,#648));
#302=EDGE_LOOP('',(#649,#650,#651,#652,#653,#654,#655,#656,#657,#658,#659,
#660));
#303=EDGE_LOOP('',(#661,#662,#663,#664));
#304=EDGE_LOOP('',(#665,#666,#667,#668));
#305=EDGE_LOOP('',(#669,#670,#671,#672));
#306=EDGE_LOOP('',(#673,#674,#675,#676,#677));
#307=EDGE_LOOP('',(#678,#679,#680,#681));
#308=EDGE_LOOP('',(#682,#683,#684,#685));
#309=EDGE_LOOP('',(#686,#687,#688,#689));
#310=EDGE_LOOP('',(#690,#691,#692,#693));
#311=EDGE_LOOP('',(#694,#695,#696,#697));
#312=EDGE_LOOP('',(#698,#699,#700,#701));
#313=EDGE_LOOP('',(#702,#703,#704,#705));
#314=EDGE_LOOP('',(#706,#707,#708,#709,#710));
#315=EDGE_LOOP('',(#711,#712,#713,#714,#715,#716,#717,#718,#719,#720,#721,
#722));
#316=EDGE_LOOP('',(#723,#724,#725,#726,#727,#728));
#317=EDGE_LOOP('',(#729,#730,#731,#732));
#318=EDGE_LOOP('',(#733,#734,#735,#736,#737,#738,#739,#740,#741,#742,#743,
#744));
#319=EDGE_LOOP('',(#745,#746,#747,#748));
#320=EDGE_LOOP('',(#749,#750,#751,#752,#753));
#321=EDGE_LOOP('',(#754,#755,#756,#757));
#322=EDGE_LOOP('',(#758,#759,#760,#761,#762));
#323=EDGE_LOOP('',(#763,#764,#765,#766));
#324=EDGE_LOOP('',(#767,#768,#769,#770));
#325=EDGE_LOOP('',(#771,#772,#773,#774));
#326=EDGE_LOOP('',(#775,#776,#777,#778));
#327=EDGE_LOOP('',(#779,#780,#781,#782));
#328=EDGE_LOOP('',(#783,#784,#785,#786));
#329=EDGE_LOOP('',(#787,#788,#789,#790));
#330=EDGE_LOOP('',(#791,#792,#793,#794));
#331=EDGE_LOOP('',(#795,#796,#797,#798));
#332=EDGE_LOOP('',(#799,#800,#801,#802));
#333=EDGE_LOOP('',(#803,#804,#805,#806));
#334=EDGE_LOOP('',(#807,#808,#809,#810));
#335=EDGE_LOOP('',(#811,#812,#813,#814));
#336=EDGE_LOOP('',(#815,#816,#817,#818,#819,#820));
#337=EDGE_LOOP('',(#821,#822,#823,#824,#825,#826));
#338=CIRCLE('',#881,4.80000549138208);
#339=CIRCLE('',#882,0.1);
#340=CIRCLE('',#883,4.70000549138208);
#341=CIRCLE('',#885,0.1);
#342=CIRCLE('',#887,0.0999999999999979);
#343=CIRCLE('',#888,0.399999999999999);
#344=CIRCLE('',#889,0.499999999999999);
#345=CIRCLE('',#891,0.0999999999999979);
#346=CIRCLE('',#893,0.1);
#347=CIRCLE('',#894,0.39999999999998);
#348=CIRCLE('',#895,0.49999999999998);
#349=CIRCLE('',#898,0.499999999999999);
#350=CIRCLE('',#901,4.80000549138208);
#351=CIRCLE('',#903,1.65);
#352=CIRCLE('',#904,1.65);
#353=CIRCLE('',#905,1.65);
#354=CIRCLE('',#906,1.65);
#355=CIRCLE('',#913,1.65);
#356=CIRCLE('',#914,1.65);
#357=CIRCLE('',#915,1.65);
#358=CIRCLE('',#916,1.65);
#359=CIRCLE('',#917,1.35);
#360=CIRCLE('',#918,1.35);
#361=CIRCLE('',#920,1.35);
#362=CIRCLE('',#923,1.35);
#363=CIRCLE('',#928,2.35);
#364=CIRCLE('',#929,2.35);
#365=CIRCLE('',#932,2.34999999999999);
#366=CIRCLE('',#933,2.34999999999999);
#367=CIRCLE('',#939,2.00000000000001);
#368=CIRCLE('',#940,2.00000000000001);
#369=CIRCLE('',#941,1.65);
#370=CIRCLE('',#942,1.65);
#371=CIRCLE('',#953,0.49999999999998);
#372=CIRCLE('',#959,2.00000000000001);
#373=CIRCLE('',#962,2.00000000000001);
#374=B_SPLINE_CURVE_WITH_KNOTS('',3,(#1225,#1226,#1227,#1228,#1229,#1230,
#1231,#1232,#1233,#1234,#1235,#1236,#1237,#1238,#1239,#1240,#1241,#1242,
#1243,#1244,#1245,#1246),.UNSPECIFIED.,.F.,.F.,(4,3,3,3,3,3,3,4),(0.,0.236714754398977,
0.473365874355618,0.709963771947931,0.946724517663078,1.18335510942133,
1.42006378902125,1.57079669095321),.UNSPECIFIED.);
#375=VERTEX_POINT('',#1223);
#376=VERTEX_POINT('',#1224);
#377=VERTEX_POINT('',#1247);
#378=VERTEX_POINT('',#1249);
#379=VERTEX_POINT('',#1253);
#380=VERTEX_POINT('',#1254);
#381=VERTEX_POINT('',#1259);
#382=VERTEX_POINT('',#1260);
#383=VERTEX_POINT('',#1265);
#384=VERTEX_POINT('',#1266);
#385=VERTEX_POINT('',#1271);
#386=VERTEX_POINT('',#1272);
#387=VERTEX_POINT('',#1280);
#388=VERTEX_POINT('',#1282);
#389=VERTEX_POINT('',#1286);
#390=VERTEX_POINT('',#1290);
#391=VERTEX_POINT('',#1294);
#392=VERTEX_POINT('',#1295);
#393=VERTEX_POINT('',#1297);
#394=VERTEX_POINT('',#1299);
#395=VERTEX_POINT('',#1301);
#396=VERTEX_POINT('',#1303);
#397=VERTEX_POINT('',#1305);
#398=VERTEX_POINT('',#1307);
#399=VERTEX_POINT('',#1311);
#400=VERTEX_POINT('',#1312);
#401=VERTEX_POINT('',#1314);
#402=VERTEX_POINT('',#1316);
#403=VERTEX_POINT('',#1320);
#404=VERTEX_POINT('',#1322);
#405=VERTEX_POINT('',#1326);
#406=VERTEX_POINT('',#1328);
#407=VERTEX_POINT('',#1336);
#408=VERTEX_POINT('',#1337);
#409=VERTEX_POINT('',#1339);
#410=VERTEX_POINT('',#1341);
#411=VERTEX_POINT('',#1343);
#412=VERTEX_POINT('',#1345);
#413=VERTEX_POINT('',#1347);
#414=VERTEX_POINT('',#1349);
#415=VERTEX_POINT('',#1351);
#416=VERTEX_POINT('',#1353);
#417=VERTEX_POINT('',#1355);
#418=VERTEX_POINT('',#1357);
#419=VERTEX_POINT('',#1361);
#420=VERTEX_POINT('',#1363);
#421=VERTEX_POINT('',#1367);
#422=VERTEX_POINT('',#1371);
#423=VERTEX_POINT('',#1375);
#424=VERTEX_POINT('',#1377);
#425=VERTEX_POINT('',#1381);
#426=VERTEX_POINT('',#1383);
#427=VERTEX_POINT('',#1387);
#428=VERTEX_POINT('',#1389);
#429=VERTEX_POINT('',#1393);
#430=VERTEX_POINT('',#1395);
#431=VERTEX_POINT('',#1399);
#432=VERTEX_POINT('',#1401);
#433=VERTEX_POINT('',#1405);
#434=VERTEX_POINT('',#1407);
#435=VERTEX_POINT('',#1411);
#436=VERTEX_POINT('',#1413);
#437=VERTEX_POINT('',#1417);
#438=VERTEX_POINT('',#1419);
#439=VERTEX_POINT('',#1427);
#440=VERTEX_POINT('',#1428);
#441=VERTEX_POINT('',#1430);
#442=VERTEX_POINT('',#1432);
#443=VERTEX_POINT('',#1434);
#444=VERTEX_POINT('',#1436);
#445=VERTEX_POINT('',#1439);
#446=VERTEX_POINT('',#1441);
#447=VERTEX_POINT('',#1461);
#448=VERTEX_POINT('',#1465);
#449=VERTEX_POINT('',#1471);
#450=VERTEX_POINT('',#1473);
#451=VERTEX_POINT('',#1477);
#452=VERTEX_POINT('',#1481);
#453=VERTEX_POINT('',#1485);
#454=VERTEX_POINT('',#1489);
#455=EDGE_CURVE('',#375,#376,#374,.T.);
#456=EDGE_CURVE('',#375,#377,#338,.T.);
#457=EDGE_CURVE('',#377,#378,#339,.T.);
#458=EDGE_CURVE('',#378,#376,#340,.T.);
#459=EDGE_CURVE('',#379,#380,#341,.T.);
#460=EDGE_CURVE('',#380,#378,#48,.T.);
#461=EDGE_CURVE('',#377,#379,#49,.T.);
#462=EDGE_CURVE('',#381,#382,#342,.T.);
#463=EDGE_CURVE('',#382,#380,#343,.T.);
#464=EDGE_CURVE('',#379,#381,#344,.T.);
#465=EDGE_CURVE('',#383,#384,#345,.T.);
#466=EDGE_CURVE('',#384,#382,#50,.T.);
#467=EDGE_CURVE('',#381,#383,#51,.T.);
#468=EDGE_CURVE('',#385,#386,#346,.T.);
#469=EDGE_CURVE('',#386,#384,#347,.T.);
#470=EDGE_CURVE('',#383,#385,#348,.T.);
#471=EDGE_CURVE('',#376,#386,#52,.T.);
#472=EDGE_CURVE('',#385,#375,#53,.T.);
#473=EDGE_CURVE('',#387,#379,#54,.T.);
#474=EDGE_CURVE('',#388,#387,#349,.T.);
#475=EDGE_CURVE('',#388,#381,#55,.T.);
#476=EDGE_CURVE('',#389,#377,#56,.T.);
#477=EDGE_CURVE('',#387,#389,#57,.T.);
#478=EDGE_CURVE('',#390,#375,#58,.T.);
#479=EDGE_CURVE('',#389,#390,#350,.T.);
#480=EDGE_CURVE('',#391,#392,#59,.T.);
#481=EDGE_CURVE('',#392,#393,#351,.T.);
#482=EDGE_CURVE('',#393,#394,#60,.T.);
#483=EDGE_CURVE('',#394,#395,#352,.T.);
#484=EDGE_CURVE('',#395,#396,#61,.T.);
#485=EDGE_CURVE('',#396,#397,#353,.T.);
#486=EDGE_CURVE('',#397,#398,#62,.T.);
#487=EDGE_CURVE('',#398,#391,#354,.T.);
#488=EDGE_CURVE('',#399,#400,#63,.T.);
#489=EDGE_CURVE('',#399,#401,#64,.T.);
#490=EDGE_CURVE('',#402,#401,#65,.T.);
#491=EDGE_CURVE('',#400,#402,#66,.T.);
#492=EDGE_CURVE('',#400,#403,#67,.T.);
#493=EDGE_CURVE('',#404,#402,#68,.T.);
#494=EDGE_CURVE('',#403,#404,#69,.T.);
#495=EDGE_CURVE('',#403,#405,#70,.T.);
#496=EDGE_CURVE('',#406,#404,#71,.T.);
#497=EDGE_CURVE('',#405,#406,#72,.T.);
#498=EDGE_CURVE('',#405,#399,#73,.T.);
#499=EDGE_CURVE('',#401,#406,#74,.T.);
#500=EDGE_CURVE('',#407,#408,#355,.T.);
#501=EDGE_CURVE('',#408,#409,#75,.T.);
#502=EDGE_CURVE('',#409,#410,#356,.T.);
#503=EDGE_CURVE('',#410,#411,#76,.T.);
#504=EDGE_CURVE('',#411,#412,#357,.T.);
#505=EDGE_CURVE('',#412,#413,#77,.T.);
#506=EDGE_CURVE('',#413,#414,#358,.T.);
#507=EDGE_CURVE('',#415,#414,#78,.T.);
#508=EDGE_CURVE('',#415,#416,#359,.T.);
#509=EDGE_CURVE('',#416,#417,#79,.T.);
#510=EDGE_CURVE('',#417,#418,#360,.T.);
#511=EDGE_CURVE('',#407,#418,#80,.T.);
#512=EDGE_CURVE('',#415,#419,#81,.T.);
#513=EDGE_CURVE('',#420,#419,#361,.T.);
#514=EDGE_CURVE('',#416,#420,#82,.T.);
#515=EDGE_CURVE('',#421,#420,#83,.T.);
#516=EDGE_CURVE('',#417,#421,#84,.T.);
#517=EDGE_CURVE('',#422,#421,#362,.T.);
#518=EDGE_CURVE('',#418,#422,#85,.T.);
#519=EDGE_CURVE('',#407,#423,#86,.T.);
#520=EDGE_CURVE('',#424,#422,#87,.T.);
#521=EDGE_CURVE('',#423,#424,#88,.T.);
#522=EDGE_CURVE('',#423,#425,#89,.T.);
#523=EDGE_CURVE('',#426,#424,#90,.T.);
#524=EDGE_CURVE('',#425,#426,#91,.T.);
#525=EDGE_CURVE('',#425,#427,#92,.T.);
#526=EDGE_CURVE('',#428,#426,#93,.T.);
#527=EDGE_CURVE('',#427,#428,#94,.T.);
#528=EDGE_CURVE('',#427,#429,#363,.T.);
#529=EDGE_CURVE('',#430,#428,#364,.T.);
#530=EDGE_CURVE('',#429,#430,#95,.T.);
#531=EDGE_CURVE('',#429,#431,#96,.T.);
#532=EDGE_CURVE('',#432,#430,#97,.T.);
#533=EDGE_CURVE('',#431,#432,#98,.T.);
#534=EDGE_CURVE('',#431,#433,#365,.T.);
#535=EDGE_CURVE('',#434,#432,#366,.T.);
#536=EDGE_CURVE('',#433,#434,#99,.T.);
#537=EDGE_CURVE('',#433,#435,#100,.T.);
#538=EDGE_CURVE('',#436,#434,#101,.T.);
#539=EDGE_CURVE('',#435,#436,#102,.T.);
#540=EDGE_CURVE('',#435,#437,#103,.T.);
#541=EDGE_CURVE('',#438,#436,#104,.T.);
#542=EDGE_CURVE('',#437,#438,#105,.T.);
#543=EDGE_CURVE('',#437,#414,#106,.T.);
#544=EDGE_CURVE('',#419,#438,#107,.T.);
#545=EDGE_CURVE('',#439,#440,#367,.T.);
#546=EDGE_CURVE('',#439,#441,#108,.T.);
#547=EDGE_CURVE('',#441,#442,#109,.T.);
#548=EDGE_CURVE('',#442,#443,#110,.T.);
#549=EDGE_CURVE('',#444,#443,#368,.T.);
#550=EDGE_CURVE('',#444,#440,#111,.T.);
#551=EDGE_CURVE('',#414,#445,#369,.T.);
#552=EDGE_CURVE('',#445,#446,#112,.T.);
#553=EDGE_CURVE('',#446,#407,#370,.T.);
#554=EDGE_CURVE('',#396,#412,#113,.T.);
#555=EDGE_CURVE('',#395,#413,#114,.T.);
#556=EDGE_CURVE('',#394,#445,#115,.T.);
#557=EDGE_CURVE('',#393,#446,#116,.T.);
#558=EDGE_CURVE('',#392,#408,#117,.T.);
#559=EDGE_CURVE('',#391,#409,#118,.T.);
#560=EDGE_CURVE('',#398,#410,#119,.T.);
#561=EDGE_CURVE('',#397,#411,#120,.T.);
#562=EDGE_CURVE('',#447,#385,#121,.T.);
#563=EDGE_CURVE('',#390,#447,#122,.T.);
#564=EDGE_CURVE('',#448,#383,#123,.T.);
#565=EDGE_CURVE('',#447,#448,#371,.T.);
#566=EDGE_CURVE('',#448,#388,#124,.T.);
#567=EDGE_CURVE('',#439,#449,#125,.T.);
#568=EDGE_CURVE('',#450,#449,#126,.T.);
#569=EDGE_CURVE('',#441,#450,#127,.T.);
#570=EDGE_CURVE('',#451,#450,#128,.T.);
#571=EDGE_CURVE('',#442,#451,#129,.T.);
#572=EDGE_CURVE('',#452,#451,#130,.T.);
#573=EDGE_CURVE('',#443,#452,#131,.T.);
#574=EDGE_CURVE('',#453,#452,#372,.T.);
#575=EDGE_CURVE('',#444,#453,#132,.T.);
#576=EDGE_CURVE('',#454,#453,#133,.T.);
#577=EDGE_CURVE('',#440,#454,#134,.T.);
#578=EDGE_CURVE('',#449,#454,#373,.T.);
#579=ORIENTED_EDGE('',*,*,#455,.F.);
#580=ORIENTED_EDGE('',*,*,#456,.T.);
#581=ORIENTED_EDGE('',*,*,#457,.T.);
#582=ORIENTED_EDGE('',*,*,#458,.T.);
#583=ORIENTED_EDGE('',*,*,#459,.T.);
#584=ORIENTED_EDGE('',*,*,#460,.T.);
#585=ORIENTED_EDGE('',*,*,#457,.F.);
#586=ORIENTED_EDGE('',*,*,#461,.T.);
#587=ORIENTED_EDGE('',*,*,#462,.T.);
#588=ORIENTED_EDGE('',*,*,#463,.T.);
#589=ORIENTED_EDGE('',*,*,#459,.F.);
#590=ORIENTED_EDGE('',*,*,#464,.T.);
#591=ORIENTED_EDGE('',*,*,#465,.T.);
#592=ORIENTED_EDGE('',*,*,#466,.T.);
#593=ORIENTED_EDGE('',*,*,#462,.F.);
#594=ORIENTED_EDGE('',*,*,#467,.T.);
#595=ORIENTED_EDGE('',*,*,#468,.T.);
#596=ORIENTED_EDGE('',*,*,#469,.T.);
#597=ORIENTED_EDGE('',*,*,#465,.F.);
#598=ORIENTED_EDGE('',*,*,#470,.T.);
#599=ORIENTED_EDGE('',*,*,#455,.T.);
#600=ORIENTED_EDGE('',*,*,#471,.T.);
#601=ORIENTED_EDGE('',*,*,#468,.F.);
#602=ORIENTED_EDGE('',*,*,#472,.T.);
#603=ORIENTED_EDGE('',*,*,#464,.F.);
#604=ORIENTED_EDGE('',*,*,#473,.F.);
#605=ORIENTED_EDGE('',*,*,#474,.F.);
#606=ORIENTED_EDGE('',*,*,#475,.T.);
#607=ORIENTED_EDGE('',*,*,#461,.F.);
#608=ORIENTED_EDGE('',*,*,#476,.F.);
#609=ORIENTED_EDGE('',*,*,#477,.F.);
#610=ORIENTED_EDGE('',*,*,#473,.T.);
#611=ORIENTED_EDGE('',*,*,#456,.F.);
#612=ORIENTED_EDGE('',*,*,#478,.F.);
#613=ORIENTED_EDGE('',*,*,#479,.F.);
#614=ORIENTED_EDGE('',*,*,#476,.T.);
#615=ORIENTED_EDGE('',*,*,#458,.F.);
#616=ORIENTED_EDGE('',*,*,#460,.F.);
#617=ORIENTED_EDGE('',*,*,#463,.F.);
#618=ORIENTED_EDGE('',*,*,#466,.F.);
#619=ORIENTED_EDGE('',*,*,#469,.F.);
#620=ORIENTED_EDGE('',*,*,#471,.F.);
#621=ORIENTED_EDGE('',*,*,#480,.T.);
#622=ORIENTED_EDGE('',*,*,#481,.T.);
#623=ORIENTED_EDGE('',*,*,#482,.T.);
#624=ORIENTED_EDGE('',*,*,#483,.T.);
#625=ORIENTED_EDGE('',*,*,#484,.T.);
#626=ORIENTED_EDGE('',*,*,#485,.T.);
#627=ORIENTED_EDGE('',*,*,#486,.T.);
#628=ORIENTED_EDGE('',*,*,#487,.T.);
#629=ORIENTED_EDGE('',*,*,#488,.F.);
#630=ORIENTED_EDGE('',*,*,#489,.T.);
#631=ORIENTED_EDGE('',*,*,#490,.F.);
#632=ORIENTED_EDGE('',*,*,#491,.F.);
#633=ORIENTED_EDGE('',*,*,#492,.F.);
#634=ORIENTED_EDGE('',*,*,#491,.T.);
#635=ORIENTED_EDGE('',*,*,#493,.F.);
#636=ORIENTED_EDGE('',*,*,#494,.F.);
#637=ORIENTED_EDGE('',*,*,#495,.F.);
#638=ORIENTED_EDGE('',*,*,#494,.T.);
#639=ORIENTED_EDGE('',*,*,#496,.F.);
#640=ORIENTED_EDGE('',*,*,#497,.F.);
#641=ORIENTED_EDGE('',*,*,#498,.F.);
#642=ORIENTED_EDGE('',*,*,#497,.T.);
#643=ORIENTED_EDGE('',*,*,#499,.F.);
#644=ORIENTED_EDGE('',*,*,#489,.F.);
#645=ORIENTED_EDGE('',*,*,#499,.T.);
#646=ORIENTED_EDGE('',*,*,#496,.T.);
#647=ORIENTED_EDGE('',*,*,#493,.T.);
#648=ORIENTED_EDGE('',*,*,#490,.T.);
#649=ORIENTED_EDGE('',*,*,#500,.T.);
#650=ORIENTED_EDGE('',*,*,#501,.T.);
#651=ORIENTED_EDGE('',*,*,#502,.T.);
#652=ORIENTED_EDGE('',*,*,#503,.T.);
#653=ORIENTED_EDGE('',*,*,#504,.T.);
#654=ORIENTED_EDGE('',*,*,#505,.T.);
#655=ORIENTED_EDGE('',*,*,#506,.T.);
#656=ORIENTED_EDGE('',*,*,#507,.F.);
#657=ORIENTED_EDGE('',*,*,#508,.T.);
#658=ORIENTED_EDGE('',*,*,#509,.T.);
#659=ORIENTED_EDGE('',*,*,#510,.T.);
#660=ORIENTED_EDGE('',*,*,#511,.F.);
#661=ORIENTED_EDGE('',*,*,#508,.F.);
#662=ORIENTED_EDGE('',*,*,#512,.T.);
#663=ORIENTED_EDGE('',*,*,#513,.F.);
#664=ORIENTED_EDGE('',*,*,#514,.F.);
#665=ORIENTED_EDGE('',*,*,#509,.F.);
#666=ORIENTED_EDGE('',*,*,#514,.T.);
#667=ORIENTED_EDGE('',*,*,#515,.F.);
#668=ORIENTED_EDGE('',*,*,#516,.F.);
#669=ORIENTED_EDGE('',*,*,#510,.F.);
#670=ORIENTED_EDGE('',*,*,#516,.T.);
#671=ORIENTED_EDGE('',*,*,#517,.F.);
#672=ORIENTED_EDGE('',*,*,#518,.F.);
#673=ORIENTED_EDGE('',*,*,#519,.F.);
#674=ORIENTED_EDGE('',*,*,#511,.T.);
#675=ORIENTED_EDGE('',*,*,#518,.T.);
#676=ORIENTED_EDGE('',*,*,#520,.F.);
#677=ORIENTED_EDGE('',*,*,#521,.F.);
#678=ORIENTED_EDGE('',*,*,#522,.F.);
#679=ORIENTED_EDGE('',*,*,#521,.T.);
#680=ORIENTED_EDGE('',*,*,#523,.F.);
#681=ORIENTED_EDGE('',*,*,#524,.F.);
#682=ORIENTED_EDGE('',*,*,#525,.F.);
#683=ORIENTED_EDGE('',*,*,#524,.T.);
#684=ORIENTED_EDGE('',*,*,#526,.F.);
#685=ORIENTED_EDGE('',*,*,#527,.F.);
#686=ORIENTED_EDGE('',*,*,#528,.F.);
#687=ORIENTED_EDGE('',*,*,#527,.T.);
#688=ORIENTED_EDGE('',*,*,#529,.F.);
#689=ORIENTED_EDGE('',*,*,#530,.F.);
#690=ORIENTED_EDGE('',*,*,#531,.F.);
#691=ORIENTED_EDGE('',*,*,#530,.T.);
#692=ORIENTED_EDGE('',*,*,#532,.F.);
#693=ORIENTED_EDGE('',*,*,#533,.F.);
#694=ORIENTED_EDGE('',*,*,#534,.F.);
#695=ORIENTED_EDGE('',*,*,#533,.T.);
#696=ORIENTED_EDGE('',*,*,#535,.F.);
#697=ORIENTED_EDGE('',*,*,#536,.F.);
#698=ORIENTED_EDGE('',*,*,#537,.F.);
#699=ORIENTED_EDGE('',*,*,#536,.T.);
#700=ORIENTED_EDGE('',*,*,#538,.F.);
#701=ORIENTED_EDGE('',*,*,#539,.F.);
#702=ORIENTED_EDGE('',*,*,#540,.F.);
#703=ORIENTED_EDGE('',*,*,#539,.T.);
#704=ORIENTED_EDGE('',*,*,#541,.F.);
#705=ORIENTED_EDGE('',*,*,#542,.F.);
#706=ORIENTED_EDGE('',*,*,#507,.T.);
#707=ORIENTED_EDGE('',*,*,#543,.F.);
#708=ORIENTED_EDGE('',*,*,#542,.T.);
#709=ORIENTED_EDGE('',*,*,#544,.F.);
#710=ORIENTED_EDGE('',*,*,#512,.F.);
#711=ORIENTED_EDGE('',*,*,#544,.T.);
#712=ORIENTED_EDGE('',*,*,#541,.T.);
#713=ORIENTED_EDGE('',*,*,#538,.T.);
#714=ORIENTED_EDGE('',*,*,#535,.T.);
#715=ORIENTED_EDGE('',*,*,#532,.T.);
#716=ORIENTED_EDGE('',*,*,#529,.T.);
#717=ORIENTED_EDGE('',*,*,#526,.T.);
#718=ORIENTED_EDGE('',*,*,#523,.T.);
#719=ORIENTED_EDGE('',*,*,#520,.T.);
#720=ORIENTED_EDGE('',*,*,#517,.T.);
#721=ORIENTED_EDGE('',*,*,#515,.T.);
#722=ORIENTED_EDGE('',*,*,#513,.T.);
#723=ORIENTED_EDGE('',*,*,#545,.F.);
#724=ORIENTED_EDGE('',*,*,#546,.T.);
#725=ORIENTED_EDGE('',*,*,#547,.T.);
#726=ORIENTED_EDGE('',*,*,#548,.T.);
#727=ORIENTED_EDGE('',*,*,#549,.F.);
#728=ORIENTED_EDGE('',*,*,#550,.T.);
#729=ORIENTED_EDGE('',*,*,#488,.T.);
#730=ORIENTED_EDGE('',*,*,#492,.T.);
#731=ORIENTED_EDGE('',*,*,#495,.T.);
#732=ORIENTED_EDGE('',*,*,#498,.T.);
#733=ORIENTED_EDGE('',*,*,#519,.T.);
#734=ORIENTED_EDGE('',*,*,#522,.T.);
#735=ORIENTED_EDGE('',*,*,#525,.T.);
#736=ORIENTED_EDGE('',*,*,#528,.T.);
#737=ORIENTED_EDGE('',*,*,#531,.T.);
#738=ORIENTED_EDGE('',*,*,#534,.T.);
#739=ORIENTED_EDGE('',*,*,#537,.T.);
#740=ORIENTED_EDGE('',*,*,#540,.T.);
#741=ORIENTED_EDGE('',*,*,#543,.T.);
#742=ORIENTED_EDGE('',*,*,#551,.T.);
#743=ORIENTED_EDGE('',*,*,#552,.T.);
#744=ORIENTED_EDGE('',*,*,#553,.T.);
#745=ORIENTED_EDGE('',*,*,#505,.F.);
#746=ORIENTED_EDGE('',*,*,#554,.F.);
#747=ORIENTED_EDGE('',*,*,#484,.F.);
#748=ORIENTED_EDGE('',*,*,#555,.T.);
#749=ORIENTED_EDGE('',*,*,#506,.F.);
#750=ORIENTED_EDGE('',*,*,#555,.F.);
#751=ORIENTED_EDGE('',*,*,#483,.F.);
#752=ORIENTED_EDGE('',*,*,#556,.T.);
#753=ORIENTED_EDGE('',*,*,#551,.F.);
#754=ORIENTED_EDGE('',*,*,#552,.F.);
#755=ORIENTED_EDGE('',*,*,#556,.F.);
#756=ORIENTED_EDGE('',*,*,#482,.F.);
#757=ORIENTED_EDGE('',*,*,#557,.T.);
#758=ORIENTED_EDGE('',*,*,#553,.F.);
#759=ORIENTED_EDGE('',*,*,#557,.F.);
#760=ORIENTED_EDGE('',*,*,#481,.F.);
#761=ORIENTED_EDGE('',*,*,#558,.T.);
#762=ORIENTED_EDGE('',*,*,#500,.F.);
#763=ORIENTED_EDGE('',*,*,#501,.F.);
#764=ORIENTED_EDGE('',*,*,#558,.F.);
#765=ORIENTED_EDGE('',*,*,#480,.F.);
#766=ORIENTED_EDGE('',*,*,#559,.T.);
#767=ORIENTED_EDGE('',*,*,#502,.F.);
#768=ORIENTED_EDGE('',*,*,#559,.F.);
#769=ORIENTED_EDGE('',*,*,#487,.F.);
#770=ORIENTED_EDGE('',*,*,#560,.T.);
#771=ORIENTED_EDGE('',*,*,#503,.F.);
#772=ORIENTED_EDGE('',*,*,#560,.F.);
#773=ORIENTED_EDGE('',*,*,#486,.F.);
#774=ORIENTED_EDGE('',*,*,#561,.T.);
#775=ORIENTED_EDGE('',*,*,#504,.F.);
#776=ORIENTED_EDGE('',*,*,#561,.F.);
#777=ORIENTED_EDGE('',*,*,#485,.F.);
#778=ORIENTED_EDGE('',*,*,#554,.T.);
#779=ORIENTED_EDGE('',*,*,#472,.F.);
#780=ORIENTED_EDGE('',*,*,#562,.F.);
#781=ORIENTED_EDGE('',*,*,#563,.F.);
#782=ORIENTED_EDGE('',*,*,#478,.T.);
#783=ORIENTED_EDGE('',*,*,#470,.F.);
#784=ORIENTED_EDGE('',*,*,#564,.F.);
#785=ORIENTED_EDGE('',*,*,#565,.F.);
#786=ORIENTED_EDGE('',*,*,#562,.T.);
#787=ORIENTED_EDGE('',*,*,#467,.F.);
#788=ORIENTED_EDGE('',*,*,#475,.F.);
#789=ORIENTED_EDGE('',*,*,#566,.F.);
#790=ORIENTED_EDGE('',*,*,#564,.T.);
#791=ORIENTED_EDGE('',*,*,#546,.F.);
#792=ORIENTED_EDGE('',*,*,#567,.T.);
#793=ORIENTED_EDGE('',*,*,#568,.F.);
#794=ORIENTED_EDGE('',*,*,#569,.F.);
#795=ORIENTED_EDGE('',*,*,#547,.F.);
#796=ORIENTED_EDGE('',*,*,#569,.T.);
#797=ORIENTED_EDGE('',*,*,#570,.F.);
#798=ORIENTED_EDGE('',*,*,#571,.F.);
#799=ORIENTED_EDGE('',*,*,#548,.F.);
#800=ORIENTED_EDGE('',*,*,#571,.T.);
#801=ORIENTED_EDGE('',*,*,#572,.F.);
#802=ORIENTED_EDGE('',*,*,#573,.F.);
#803=ORIENTED_EDGE('',*,*,#549,.T.);
#804=ORIENTED_EDGE('',*,*,#573,.T.);
#805=ORIENTED_EDGE('',*,*,#574,.F.);
#806=ORIENTED_EDGE('',*,*,#575,.F.);
#807=ORIENTED_EDGE('',*,*,#550,.F.);
#808=ORIENTED_EDGE('',*,*,#575,.T.);
#809=ORIENTED_EDGE('',*,*,#576,.F.);
#810=ORIENTED_EDGE('',*,*,#577,.F.);
#811=ORIENTED_EDGE('',*,*,#545,.T.);
#812=ORIENTED_EDGE('',*,*,#577,.T.);
#813=ORIENTED_EDGE('',*,*,#578,.F.);
#814=ORIENTED_EDGE('',*,*,#567,.F.);
#815=ORIENTED_EDGE('',*,*,#578,.T.);
#816=ORIENTED_EDGE('',*,*,#576,.T.);
#817=ORIENTED_EDGE('',*,*,#574,.T.);
#818=ORIENTED_EDGE('',*,*,#572,.T.);
#819=ORIENTED_EDGE('',*,*,#570,.T.);
#820=ORIENTED_EDGE('',*,*,#568,.T.);
#821=ORIENTED_EDGE('',*,*,#563,.T.);
#822=ORIENTED_EDGE('',*,*,#565,.T.);
#823=ORIENTED_EDGE('',*,*,#566,.T.);
#824=ORIENTED_EDGE('',*,*,#474,.T.);
#825=ORIENTED_EDGE('',*,*,#477,.T.);
#826=ORIENTED_EDGE('',*,*,#479,.T.);
#827=TOROIDAL_SURFACE('',#880,4.70000549138208,0.1);
#828=TOROIDAL_SURFACE('',#886,0.399999999999999,0.1);
#829=TOROIDAL_SURFACE('',#892,0.39999999999998,0.1);
#830=ADVANCED_FACE('',(#238),#827,.T.);
#831=ADVANCED_FACE('',(#239),#222,.T.);
#832=ADVANCED_FACE('',(#240),#828,.T.);
#833=ADVANCED_FACE('',(#241),#223,.T.);
#834=ADVANCED_FACE('',(#242),#829,.T.);
#835=ADVANCED_FACE('',(#243),#224,.T.);
#836=ADVANCED_FACE('',(#244),#225,.T.);
#837=ADVANCED_FACE('',(#245),#19,.T.);
#838=ADVANCED_FACE('',(#246),#226,.T.);
#839=ADVANCED_FACE('',(#247,#15),#20,.T.);
#840=ADVANCED_FACE('',(#248),#21,.T.);
#841=ADVANCED_FACE('',(#249),#22,.T.);
#842=ADVANCED_FACE('',(#250),#23,.T.);
#843=ADVANCED_FACE('',(#251),#24,.T.);
#844=ADVANCED_FACE('',(#252),#25,.T.);
#845=ADVANCED_FACE('',(#253),#26,.F.);
#846=ADVANCED_FACE('',(#254),#227,.F.);
#847=ADVANCED_FACE('',(#255),#27,.T.);
#848=ADVANCED_FACE('',(#256),#228,.F.);
#849=ADVANCED_FACE('',(#257),#28,.T.);
#850=ADVANCED_FACE('',(#258),#29,.T.);
#851=ADVANCED_FACE('',(#259),#30,.T.);
#852=ADVANCED_FACE('',(#260),#229,.T.);
#853=ADVANCED_FACE('',(#261),#31,.T.);
#854=ADVANCED_FACE('',(#262),#230,.T.);
#855=ADVANCED_FACE('',(#263),#32,.T.);
#856=ADVANCED_FACE('',(#264),#33,.T.);
#857=ADVANCED_FACE('',(#265),#34,.T.);
#858=ADVANCED_FACE('',(#266),#35,.T.);
#859=ADVANCED_FACE('',(#267,#16,#17),#36,.F.);
#860=ADVANCED_FACE('',(#268),#37,.F.);
#861=ADVANCED_FACE('',(#269),#231,.F.);
#862=ADVANCED_FACE('',(#270),#38,.F.);
#863=ADVANCED_FACE('',(#271),#232,.F.);
#864=ADVANCED_FACE('',(#272),#39,.F.);
#865=ADVANCED_FACE('',(#273),#233,.F.);
#866=ADVANCED_FACE('',(#274),#40,.F.);
#867=ADVANCED_FACE('',(#275),#234,.F.);
#868=ADVANCED_FACE('',(#276),#41,.T.);
#869=ADVANCED_FACE('',(#277),#235,.T.);
#870=ADVANCED_FACE('',(#278),#42,.T.);
#871=ADVANCED_FACE('',(#279),#43,.T.);
#872=ADVANCED_FACE('',(#280),#44,.T.);
#873=ADVANCED_FACE('',(#281),#45,.T.);
#874=ADVANCED_FACE('',(#282),#236,.T.);
#875=ADVANCED_FACE('',(#283),#46,.T.);
#876=ADVANCED_FACE('',(#284),#237,.T.);
#877=ADVANCED_FACE('',(#285,#18),#47,.T.);
#878=CLOSED_SHELL('',(#830,#831,#832,#833,#834,#835,#836,#837,#838,#839,
#840,#841,#842,#843,#844,#845,#846,#847,#848,#849,#850,#851,#852,#853,#854,
#855,#856,#857,#858,#859,#860,#861,#862,#863,#864,#865,#866,#867,#868,#869,
#870,#871,#872,#873,#874,#875,#876,#877));
#879=AXIS2_PLACEMENT_3D('',#1221,#964,#965);
#880=AXIS2_PLACEMENT_3D('',#1222,#966,#967);
#881=AXIS2_PLACEMENT_3D('',#1248,#968,#969);
#882=AXIS2_PLACEMENT_3D('',#1250,#970,#971);
#883=AXIS2_PLACEMENT_3D('',#1251,#972,#973);
#884=AXIS2_PLACEMENT_3D('',#1252,#974,#975);
#885=AXIS2_PLACEMENT_3D('',#1255,#976,#977);
#886=AXIS2_PLACEMENT_3D('',#1258,#980,#981);
#887=AXIS2_PLACEMENT_3D('',#1261,#982,#983);
#888=AXIS2_PLACEMENT_3D('',#1262,#984,#985);
#889=AXIS2_PLACEMENT_3D('',#1263,#986,#987);
#890=AXIS2_PLACEMENT_3D('',#1264,#988,#989);
#891=AXIS2_PLACEMENT_3D('',#1267,#990,#991);
#892=AXIS2_PLACEMENT_3D('',#1270,#994,#995);
#893=AXIS2_PLACEMENT_3D('',#1273,#996,#997);
#894=AXIS2_PLACEMENT_3D('',#1274,#998,#999);
#895=AXIS2_PLACEMENT_3D('',#1275,#1000,#1001);
#896=AXIS2_PLACEMENT_3D('',#1276,#1002,#1003);
#897=AXIS2_PLACEMENT_3D('',#1279,#1006,#1007);
#898=AXIS2_PLACEMENT_3D('',#1283,#1009,#1010);
#899=AXIS2_PLACEMENT_3D('',#1285,#1012,#1013);
#900=AXIS2_PLACEMENT_3D('',#1289,#1016,#1017);
#901=AXIS2_PLACEMENT_3D('',#1292,#1019,#1020);
#902=AXIS2_PLACEMENT_3D('',#1293,#1021,#1022);
#903=AXIS2_PLACEMENT_3D('',#1298,#1024,#1025);
#904=AXIS2_PLACEMENT_3D('',#1302,#1027,#1028);
#905=AXIS2_PLACEMENT_3D('',#1306,#1030,#1031);
#906=AXIS2_PLACEMENT_3D('',#1309,#1033,#1034);
#907=AXIS2_PLACEMENT_3D('',#1310,#1035,#1036);
#908=AXIS2_PLACEMENT_3D('',#1319,#1041,#1042);
#909=AXIS2_PLACEMENT_3D('',#1325,#1046,#1047);
#910=AXIS2_PLACEMENT_3D('',#1331,#1051,#1052);
#911=AXIS2_PLACEMENT_3D('',#1334,#1055,#1056);
#912=AXIS2_PLACEMENT_3D('',#1335,#1057,#1058);
#913=AXIS2_PLACEMENT_3D('',#1338,#1059,#1060);
#914=AXIS2_PLACEMENT_3D('',#1342,#1062,#1063);
#915=AXIS2_PLACEMENT_3D('',#1346,#1065,#1066);
#916=AXIS2_PLACEMENT_3D('',#1350,#1068,#1069);
#917=AXIS2_PLACEMENT_3D('',#1354,#1071,#1072);
#918=AXIS2_PLACEMENT_3D('',#1358,#1074,#1075);
#919=AXIS2_PLACEMENT_3D('',#1360,#1077,#1078);
#920=AXIS2_PLACEMENT_3D('',#1364,#1080,#1081);
#921=AXIS2_PLACEMENT_3D('',#1366,#1083,#1084);
#922=AXIS2_PLACEMENT_3D('',#1370,#1087,#1088);
#923=AXIS2_PLACEMENT_3D('',#1372,#1089,#1090);
#924=AXIS2_PLACEMENT_3D('',#1374,#1092,#1093);
#925=AXIS2_PLACEMENT_3D('',#1380,#1097,#1098);
#926=AXIS2_PLACEMENT_3D('',#1386,#1102,#1103);
#927=AXIS2_PLACEMENT_3D('',#1392,#1107,#1108);
#928=AXIS2_PLACEMENT_3D('',#1394,#1109,#1110);
#929=AXIS2_PLACEMENT_3D('',#1396,#1111,#1112);
#930=AXIS2_PLACEMENT_3D('',#1398,#1114,#1115);
#931=AXIS2_PLACEMENT_3D('',#1404,#1119,#1120);
#932=AXIS2_PLACEMENT_3D('',#1406,#1121,#1122);
#933=AXIS2_PLACEMENT_3D('',#1408,#1123,#1124);
#934=AXIS2_PLACEMENT_3D('',#1410,#1126,#1127);
#935=AXIS2_PLACEMENT_3D('',#1416,#1131,#1132);
#936=AXIS2_PLACEMENT_3D('',#1422,#1136,#1137);
#937=AXIS2_PLACEMENT_3D('',#1425,#1140,#1141);
#938=AXIS2_PLACEMENT_3D('',#1426,#1142,#1143);
#939=AXIS2_PLACEMENT_3D('',#1429,#1144,#1145);
#940=AXIS2_PLACEMENT_3D('',#1437,#1149,#1150);
#941=AXIS2_PLACEMENT_3D('',#1440,#1152,#1153);
#942=AXIS2_PLACEMENT_3D('',#1443,#1155,#1156);
#943=AXIS2_PLACEMENT_3D('',#1444,#1157,#1158);
#944=AXIS2_PLACEMENT_3D('',#1447,#1161,#1162);
#945=AXIS2_PLACEMENT_3D('',#1449,#1164,#1165);
#946=AXIS2_PLACEMENT_3D('',#1451,#1167,#1168);
#947=AXIS2_PLACEMENT_3D('',#1453,#1170,#1171);
#948=AXIS2_PLACEMENT_3D('',#1455,#1173,#1174);
#949=AXIS2_PLACEMENT_3D('',#1457,#1176,#1177);
#950=AXIS2_PLACEMENT_3D('',#1459,#1179,#1180);
#951=AXIS2_PLACEMENT_3D('',#1460,#1181,#1182);
#952=AXIS2_PLACEMENT_3D('',#1464,#1185,#1186);
#953=AXIS2_PLACEMENT_3D('',#1467,#1188,#1189);
#954=AXIS2_PLACEMENT_3D('',#1468,#1190,#1191);
#955=AXIS2_PLACEMENT_3D('',#1470,#1193,#1194);
#956=AXIS2_PLACEMENT_3D('',#1476,#1198,#1199);
#957=AXIS2_PLACEMENT_3D('',#1480,#1202,#1203);
#958=AXIS2_PLACEMENT_3D('',#1484,#1206,#1207);
#959=AXIS2_PLACEMENT_3D('',#1486,#1208,#1209);
#960=AXIS2_PLACEMENT_3D('',#1488,#1211,#1212);
#961=AXIS2_PLACEMENT_3D('',#1492,#1215,#1216);
#962=AXIS2_PLACEMENT_3D('',#1493,#1217,#1218);
#963=AXIS2_PLACEMENT_3D('',#1494,#1219,#1220);
#964=DIRECTION('axis',(0.,0.,1.));
#965=DIRECTION('refdir',(1.,0.,0.));
#966=DIRECTION('center_axis',(0.,-1.,0.));
#967=DIRECTION('ref_axis',(0.,0.,-1.));
#968=DIRECTION('center_axis',(0.,-1.,0.));
#969=DIRECTION('ref_axis',(-0.99999942798058,0.,-0.0010695973600801));
#970=DIRECTION('center_axis',(-1.,0.,0.));
#971=DIRECTION('ref_axis',(0.,0.,-1.));
#972=DIRECTION('center_axis',(0.,1.,0.));
#973=DIRECTION('ref_axis',(-0.99999942798058,0.,-0.0010695973600801));
#974=DIRECTION('center_axis',(1.,0.,-5.16382802151235E-16));
#975=DIRECTION('ref_axis',(0.,-0.707106781186548,-0.707106781186548));
#976=DIRECTION('center_axis',(-1.,0.,0.));
#977=DIRECTION('ref_axis',(0.,0.,-1.));
#978=DIRECTION('',(-1.,0.,5.16382802151235E-16));
#979=DIRECTION('',(1.,0.,-5.16382802151235E-16));
#980=DIRECTION('center_axis',(0.,-1.,0.));
#981=DIRECTION('ref_axis',(0.,0.,-1.));
#982=DIRECTION('center_axis',(1.11022302462518E-14,0.,-1.));
#983=DIRECTION('ref_axis',(1.,0.,1.11022302462518E-14));
#984=DIRECTION('center_axis',(0.,1.,0.));
#985=DIRECTION('ref_axis',(0.707106781186549,0.,-0.707106781186546));
#986=DIRECTION('center_axis',(0.,-1.,0.));
#987=DIRECTION('ref_axis',(0.707106781186549,0.,-0.707106781186546));
#988=DIRECTION('center_axis',(-1.03276560430465E-15,0.,1.));
#989=DIRECTION('ref_axis',(0.707106781186548,-0.707106781186548,0.));
#990=DIRECTION('center_axis',(0.,0.,-1.));
#991=DIRECTION('ref_axis',(1.,0.,0.));
#992=DIRECTION('',(1.03276560430465E-15,0.,-1.));
#993=DIRECTION('',(-1.03276560430465E-15,0.,1.));
#994=DIRECTION('center_axis',(0.,-1.,0.));
#995=DIRECTION('ref_axis',(0.,0.,-1.));
#996=DIRECTION('center_axis',(1.,0.,0.));
#997=DIRECTION('ref_axis',(0.,0.,1.));
#998=DIRECTION('center_axis',(0.,1.,0.));
#999=DIRECTION('ref_axis',(0.707106781186551,0.,0.707106781186544));
#1000=DIRECTION('center_axis',(0.,-1.,0.));
#1001=DIRECTION('ref_axis',(0.707106781186551,0.,0.707106781186544));
#1002=DIRECTION('center_axis',(-1.,0.,0.));
#1003=DIRECTION('ref_axis',(0.,-0.70710678118654,0.707106781186555));
#1004=DIRECTION('',(1.,0.,0.));
#1005=DIRECTION('',(-1.,0.,0.));
#1006=DIRECTION('center_axis',(0.,-1.,0.));
#1007=DIRECTION('ref_axis',(0.,0.,-1.));
#1008=DIRECTION('',(0.,-1.,0.));
#1009=DIRECTION('center_axis',(0.,1.,0.));
#1010=DIRECTION('ref_axis',(0.,0.,-1.));
#1011=DIRECTION('',(0.,-1.,0.));
#1012=DIRECTION('center_axis',(-5.16382802151235E-16,0.,-1.));
#1013=DIRECTION('ref_axis',(1.,0.,-5.16382802151235E-16));
#1014=DIRECTION('',(0.,-1.,0.));
#1015=DIRECTION('',(-1.,0.,5.16382802151235E-16));
#1016=DIRECTION('center_axis',(0.,-1.,0.));
#1017=DIRECTION('ref_axis',(-0.99999942798058,0.,-0.00106959736007994));
#1018=DIRECTION('',(0.,-1.,0.));
#1019=DIRECTION('center_axis',(0.,1.,0.));
#1020=DIRECTION('ref_axis',(0.00213919349641596,0.,0.999997711922975));
#1021=DIRECTION('center_axis',(0.,-1.,0.));
#1022=DIRECTION('ref_axis',(1.,0.,0.));
#1023=DIRECTION('',(0.,0.,1.));
#1024=DIRECTION('center_axis',(0.,1.,0.));
#1025=DIRECTION('ref_axis',(0.,0.,1.));
#1026=DIRECTION('',(1.,0.,0.));
#1027=DIRECTION('center_axis',(0.,1.,0.));
#1028=DIRECTION('ref_axis',(1.,0.,0.));
#1029=DIRECTION('',(0.,0.,-1.));
#1030=DIRECTION('center_axis',(0.,1.,0.));
#1031=DIRECTION('ref_axis',(0.,0.,-1.));
#1032=DIRECTION('',(-1.,0.,0.));
#1033=DIRECTION('center_axis',(0.,1.,0.));
#1034=DIRECTION('ref_axis',(-1.,0.,0.));
#1035=DIRECTION('center_axis',(0.,0.,-1.));
#1036=DIRECTION('ref_axis',(-1.,0.,0.));
#1037=DIRECTION('',(1.,0.,0.));
#1038=DIRECTION('',(0.,1.,0.));
#1039=DIRECTION('',(-1.,0.,0.));
#1040=DIRECTION('',(0.,1.,0.));
#1041=DIRECTION('center_axis',(1.,0.,0.));
#1042=DIRECTION('ref_axis',(0.,0.,-1.));
#1043=DIRECTION('',(0.,0.,1.));
#1044=DIRECTION('',(0.,0.,-1.));
#1045=DIRECTION('',(0.,1.,0.));
#1046=DIRECTION('center_axis',(0.,0.,1.));
#1047=DIRECTION('ref_axis',(1.,0.,0.));
#1048=DIRECTION('',(-1.,0.,0.));
#1049=DIRECTION('',(1.,0.,0.));
#1050=DIRECTION('',(0.,1.,0.));
#1051=DIRECTION('center_axis',(-1.,0.,0.));
#1052=DIRECTION('ref_axis',(0.,0.,1.));
#1053=DIRECTION('',(0.,0.,-1.));
#1054=DIRECTION('',(0.,0.,1.));
#1055=DIRECTION('center_axis',(0.,1.,0.));
#1056=DIRECTION('ref_axis',(0.,0.,1.));
#1057=DIRECTION('center_axis',(0.,1.,0.));
#1058=DIRECTION('ref_axis',(-1.,0.,0.));
#1059=DIRECTION('center_axis',(0.,-1.,0.));
#1060=DIRECTION('ref_axis',(0.,0.,1.));
#1061=DIRECTION('',(0.,0.,-1.));
#1062=DIRECTION('center_axis',(0.,-1.,0.));
#1063=DIRECTION('ref_axis',(-1.,0.,0.));
#1064=DIRECTION('',(1.,0.,0.));
#1065=DIRECTION('center_axis',(0.,-1.,0.));
#1066=DIRECTION('ref_axis',(0.,0.,-1.));
#1067=DIRECTION('',(0.,0.,1.));
#1068=DIRECTION('center_axis',(0.,-1.,0.));
#1069=DIRECTION('ref_axis',(1.,0.,0.));
#1070=DIRECTION('',(0.,0.,1.));
#1071=DIRECTION('center_axis',(0.,1.,0.));
#1072=DIRECTION('ref_axis',(1.,0.,-8.22387425648265E-16));
#1073=DIRECTION('',(-1.,0.,0.));
#1074=DIRECTION('center_axis',(0.,1.,0.));
#1075=DIRECTION('ref_axis',(-6.57909940518611E-15,0.,-1.));
#1076=DIRECTION('',(0.,0.,-1.));
#1077=DIRECTION('center_axis',(0.,1.,0.));
#1078=DIRECTION('ref_axis',(1.,0.,-8.22387425648265E-16));
#1079=DIRECTION('',(0.,1.,0.));
#1080=DIRECTION('center_axis',(0.,-1.,0.));
#1081=DIRECTION('ref_axis',(1.,0.,-8.22387425648265E-16));
#1082=DIRECTION('',(0.,1.,0.));
#1083=DIRECTION('center_axis',(0.,0.,1.));
#1084=DIRECTION('ref_axis',(1.,0.,0.));
#1085=DIRECTION('',(1.,0.,0.));
#1086=DIRECTION('',(0.,1.,0.));
#1087=DIRECTION('center_axis',(0.,1.,0.));
#1088=DIRECTION('ref_axis',(-6.57909940518611E-15,0.,-1.));
#1089=DIRECTION('center_axis',(0.,-1.,0.));
#1090=DIRECTION('ref_axis',(-6.57909940518611E-15,0.,-1.));
#1091=DIRECTION('',(0.,1.,0.));
#1092=DIRECTION('center_axis',(1.,0.,0.));
#1093=DIRECTION('ref_axis',(0.,0.,-1.));
#1094=DIRECTION('',(0.,0.,1.));
#1095=DIRECTION('',(0.,0.,-1.));
#1096=DIRECTION('',(0.,1.,0.));
#1097=DIRECTION('center_axis',(0.,0.,1.));
#1098=DIRECTION('ref_axis',(1.,0.,0.));
#1099=DIRECTION('',(-1.,0.,0.));
#1100=DIRECTION('',(1.,0.,0.));
#1101=DIRECTION('',(0.,1.,0.));
#1102=DIRECTION('center_axis',(-1.,0.,-4.10522186527505E-12));
#1103=DIRECTION('ref_axis',(-4.10522186527505E-12,0.,1.));
#1104=DIRECTION('',(4.10522186527505E-12,0.,-1.));
#1105=DIRECTION('',(-4.10522186527505E-12,0.,1.));
#1106=DIRECTION('',(0.,1.,0.));
#1107=DIRECTION('center_axis',(0.,1.,0.));
#1108=DIRECTION('ref_axis',(0.,0.,-1.));
#1109=DIRECTION('center_axis',(0.,-1.,0.));
#1110=DIRECTION('ref_axis',(0.,0.,-1.));
#1111=DIRECTION('center_axis',(0.,1.,0.));
#1112=DIRECTION('ref_axis',(0.,0.,-1.));
#1113=DIRECTION('',(0.,1.,0.));
#1114=DIRECTION('center_axis',(0.,0.,-1.));
#1115=DIRECTION('ref_axis',(-1.,0.,0.));
#1116=DIRECTION('',(1.,0.,0.));
#1117=DIRECTION('',(-1.,0.,0.));
#1118=DIRECTION('',(0.,1.,0.));
#1119=DIRECTION('center_axis',(0.,1.,0.));
#1120=DIRECTION('ref_axis',(1.,0.,0.));
#1121=DIRECTION('center_axis',(0.,-1.,0.));
#1122=DIRECTION('ref_axis',(1.,0.,0.));
#1123=DIRECTION('center_axis',(0.,1.,0.));
#1124=DIRECTION('ref_axis',(1.,0.,0.));
#1125=DIRECTION('',(0.,1.,0.));
#1126=DIRECTION('center_axis',(1.,0.,0.));
#1127=DIRECTION('ref_axis',(0.,0.,-1.));
#1128=DIRECTION('',(0.,0.,1.));
#1129=DIRECTION('',(0.,0.,-1.));
#1130=DIRECTION('',(0.,1.,0.));
#1131=DIRECTION('center_axis',(0.,0.,1.));
#1132=DIRECTION('ref_axis',(1.,0.,0.));
#1133=DIRECTION('',(-1.,0.,0.));
#1134=DIRECTION('',(1.,0.,0.));
#1135=DIRECTION('',(0.,1.,0.));
#1136=DIRECTION('center_axis',(-1.,0.,0.));
#1137=DIRECTION('ref_axis',(0.,0.,1.));
#1138=DIRECTION('',(0.,0.,-1.));
#1139=DIRECTION('',(0.,0.,1.));
#1140=DIRECTION('center_axis',(0.,1.,0.));
#1141=DIRECTION('ref_axis',(-1.,0.,0.));
#1142=DIRECTION('center_axis',(0.,-1.,0.));
#1143=DIRECTION('ref_axis',(1.,0.,0.));
#1144=DIRECTION('center_axis',(0.,-1.,0.));
#1145=DIRECTION('ref_axis',(-1.,0.,0.));
#1146=DIRECTION('',(0.,0.,1.));
#1147=DIRECTION('',(1.,0.,0.));
#1148=DIRECTION('',(0.,0.,-1.));
#1149=DIRECTION('center_axis',(0.,-1.,0.));
#1150=DIRECTION('ref_axis',(0.,0.,-1.));
#1151=DIRECTION('',(-1.,0.,0.));
#1152=DIRECTION('center_axis',(0.,-1.,0.));
#1153=DIRECTION('ref_axis',(1.,0.,0.));
#1154=DIRECTION('',(-1.,0.,0.));
#1155=DIRECTION('center_axis',(0.,-1.,0.));
#1156=DIRECTION('ref_axis',(0.,0.,1.));
#1157=DIRECTION('center_axis',(1.,0.,0.));
#1158=DIRECTION('ref_axis',(0.,0.,-1.));
#1159=DIRECTION('',(0.,1.,0.));
#1160=DIRECTION('',(0.,1.,0.));
#1161=DIRECTION('center_axis',(0.,1.,0.));
#1162=DIRECTION('ref_axis',(1.,0.,0.));
#1163=DIRECTION('',(0.,1.,0.));
#1164=DIRECTION('center_axis',(0.,0.,1.));
#1165=DIRECTION('ref_axis',(1.,0.,0.));
#1166=DIRECTION('',(0.,1.,0.));
#1167=DIRECTION('center_axis',(0.,1.,0.));
#1168=DIRECTION('ref_axis',(0.,0.,1.));
#1169=DIRECTION('',(0.,1.,0.));
#1170=DIRECTION('center_axis',(-1.,0.,0.));
#1171=DIRECTION('ref_axis',(0.,0.,1.));
#1172=DIRECTION('',(0.,1.,0.));
#1173=DIRECTION('center_axis',(0.,1.,0.));
#1174=DIRECTION('ref_axis',(-1.,0.,0.));
#1175=DIRECTION('',(0.,1.,0.));
#1176=DIRECTION('center_axis',(0.,0.,-1.));
#1177=DIRECTION('ref_axis',(-1.,0.,0.));
#1178=DIRECTION('',(0.,1.,0.));
#1179=DIRECTION('center_axis',(0.,1.,0.));
#1180=DIRECTION('ref_axis',(0.,0.,-1.));
#1181=DIRECTION('center_axis',(0.,0.,1.));
#1182=DIRECTION('ref_axis',(-1.,0.,0.));
#1183=DIRECTION('',(0.,-1.,0.));
#1184=DIRECTION('',(1.,0.,0.));
#1185=DIRECTION('center_axis',(0.,-1.,0.));
#1186=DIRECTION('ref_axis',(1.,0.,1.6653345369378E-15));
#1187=DIRECTION('',(0.,-1.,0.));
#1188=DIRECTION('center_axis',(0.,1.,0.));
#1189=DIRECTION('ref_axis',(1.,0.,1.6653345369378E-15));
#1190=DIRECTION('center_axis',(1.,0.,1.03276560430465E-15));
#1191=DIRECTION('ref_axis',(-1.03276560430465E-15,0.,1.));
#1192=DIRECTION('',(1.03276560430465E-15,0.,-1.));
#1193=DIRECTION('center_axis',(-1.,0.,0.));
#1194=DIRECTION('ref_axis',(0.,0.,-1.));
#1195=DIRECTION('',(0.,-1.,0.));
#1196=DIRECTION('',(0.,0.,-1.));
#1197=DIRECTION('',(0.,-1.,0.));
#1198=DIRECTION('center_axis',(0.,0.,1.));
#1199=DIRECTION('ref_axis',(-1.,0.,0.));
#1200=DIRECTION('',(-1.,0.,0.));
#1201=DIRECTION('',(0.,-1.,0.));
#1202=DIRECTION('center_axis',(1.,0.,0.));
#1203=DIRECTION('ref_axis',(0.,0.,1.));
#1204=DIRECTION('',(0.,0.,1.));
#1205=DIRECTION('',(0.,-1.,0.));
#1206=DIRECTION('center_axis',(0.,-1.,0.));
#1207=DIRECTION('ref_axis',(0.,0.,-1.));
#1208=DIRECTION('center_axis',(0.,-1.,0.));
#1209=DIRECTION('ref_axis',(0.,0.,-1.));
#1210=DIRECTION('',(0.,-1.,0.));
#1211=DIRECTION('center_axis',(0.,0.,-1.));
#1212=DIRECTION('ref_axis',(1.,0.,0.));
#1213=DIRECTION('',(1.,0.,0.));
#1214=DIRECTION('',(0.,-1.,0.));
#1215=DIRECTION('center_axis',(0.,-1.,0.));
#1216=DIRECTION('ref_axis',(-1.,0.,0.));
#1217=DIRECTION('center_axis',(0.,-1.,0.));
#1218=DIRECTION('ref_axis',(-1.,0.,0.));
#1219=DIRECTION('center_axis',(0.,-1.,0.));
#1220=DIRECTION('ref_axis',(1.,0.,0.));
#1221=CARTESIAN_POINT('',(0.,0.,0.));
#1222=CARTESIAN_POINT('Origin',(51.5109648294451,-23.5714760491365,-5.43999450859979));
#1223=CARTESIAN_POINT('',(51.500696688915,-23.5714760491365,-0.64));
#1224=CARTESIAN_POINT('',(51.5008036485899,-23.6714760491365,-0.74));
#1225=CARTESIAN_POINT('Ctrl Pts',(51.500696688915,-23.5714760491365,-0.64));
#1226=CARTESIAN_POINT('Ctrl Pts',(51.5007020617583,-23.5793665391205,-0.64));
#1227=CARTESIAN_POINT('Ctrl Pts',(51.5007074346015,-23.5872566172967,-0.640938233910714));
#1228=CARTESIAN_POINT('Ctrl Pts',(51.5007128074447,-23.5949270703634,-0.642788634391779));
#1229=CARTESIAN_POINT('Ctrl Pts',(51.5007181788436,-23.6025954614335,-0.644638537442073));
#1230=CARTESIAN_POINT('Ctrl Pts',(51.5007235502425,-23.6100435461066,-0.647399921488382));
#1231=CARTESIAN_POINT('Ctrl Pts',(51.5007289216414,-23.6170645014845,-0.650996106756425));
#1232=CARTESIAN_POINT('Ctrl Pts',(51.5007342918323,-23.6240838778635,-0.654591483249583));
#1233=CARTESIAN_POINT('Ctrl Pts',(51.5007396620232,-23.6306755864388,-0.659020909118021));
#1234=CARTESIAN_POINT('Ctrl Pts',(51.5007450322141,-23.6366566663162,-0.664161440255783));
#1235=CARTESIAN_POINT('Ctrl Pts',(51.5007504061012,-23.642641862915,-0.66930550957311));
#1236=CARTESIAN_POINT('Ctrl Pts',(51.5007557799883,-23.6480149614972,-0.675161131085542));
#1237=CARTESIAN_POINT('Ctrl Pts',(51.5007611538755,-23.6526266215149,-0.681565552944639));
#1238=CARTESIAN_POINT('Ctrl Pts',(51.5007665248084,-23.6572357463749,-0.687966454115186));
#1239=CARTESIAN_POINT('Ctrl Pts',(51.5007718957414,-23.661083792636,-0.694914881915406));
#1240=CARTESIAN_POINT('Ctrl Pts',(51.5007772666743,-23.6640639238163,-0.702217921414047));
#1241=CARTESIAN_POINT('Ctrl Pts',(51.5007826393797,-23.6670450384367,-0.709523370907896));
#1242=CARTESIAN_POINT('Ctrl Pts',(51.5007880120851,-23.6691573514408,-0.717182905162339));
#1243=CARTESIAN_POINT('Ctrl Pts',(51.5007933847904,-23.6703421785505,-0.724983727004122));
#1244=CARTESIAN_POINT('Ctrl Pts',(51.5007968060569,-23.6710966605106,-0.7299511853823));
#1245=CARTESIAN_POINT('Ctrl Pts',(51.5008002273234,-23.6714760491365,-0.734975571100417));
#1246=CARTESIAN_POINT('Ctrl Pts',(51.5008036485899,-23.6714760491365,-0.74));
#1247=CARTESIAN_POINT('',(51.5109648294453,-23.5714760491365,-10.2399999999819));
#1248=CARTESIAN_POINT('Origin',(51.5109648294451,-23.5714760491365,-5.43999450859979));
#1249=CARTESIAN_POINT('',(51.5109648294453,-23.6714760491365,-10.1399999999819));
#1250=CARTESIAN_POINT('Origin',(51.5109648294453,-23.5714760491365,-10.1399999999819));
#1251=CARTESIAN_POINT('Origin',(51.5109648294451,-23.6714760491365,-5.43999450859979));
#1252=CARTESIAN_POINT('Origin',(52.5859634565997,-23.5714760491365,-10.1399999999819));
#1253=CARTESIAN_POINT('',(60.1109648294452,-23.5714760491365,-10.2399999999819));
#1254=CARTESIAN_POINT('',(60.1109648294452,-23.6714760491365,-10.1399999999819));
#1255=CARTESIAN_POINT('Origin',(60.1109648294452,-23.5714760491365,-10.1399999999819));
#1256=CARTESIAN_POINT('',(52.5859634565997,-23.6714760491365,-10.1399999999819));
#1257=CARTESIAN_POINT('',(52.5859634565997,-23.5714760491365,-10.2399999999819));
#1258=CARTESIAN_POINT('Origin',(60.1109648294452,-23.5714760491365,-9.73999999998188));
#1259=CARTESIAN_POINT('',(60.6109648294451,-23.5714760491365,-9.73999999998187));
#1260=CARTESIAN_POINT('',(60.5109648294452,-23.6714760491365,-9.73999999998187));
#1261=CARTESIAN_POINT('Origin',(60.5109648294452,-23.5714760491365,-9.73999999998187));
#1262=CARTESIAN_POINT('Origin',(60.1109648294452,-23.6714760491365,-9.73999999998188));
#1263=CARTESIAN_POINT('Origin',(60.1109648294452,-23.5714760491365,-9.73999999998188));
#1264=CARTESIAN_POINT('Origin',(60.5109648294452,-23.5714760491365,-7.5899999999864));
#1265=CARTESIAN_POINT('',(60.6109648294451,-23.5714760491365,-1.13999999999999));
#1266=CARTESIAN_POINT('',(60.5109648294451,-23.6714760491365,-1.13999999999999));
#1267=CARTESIAN_POINT('Origin',(60.5109648294451,-23.5714760491365,-1.13999999999999));
#1268=CARTESIAN_POINT('',(60.5109648294452,-23.6714760491365,-7.5899999999864));
#1269=CARTESIAN_POINT('',(60.6109648294451,-23.5714760491365,-7.5899999999864));
#1270=CARTESIAN_POINT('Origin',(60.1109648294452,-23.5714760491365,-1.13999999999999));
#1271=CARTESIAN_POINT('',(60.1109648294452,-23.5714760491365,-0.640000000000007));
#1272=CARTESIAN_POINT('',(60.1109648294452,-23.6714760491365,-0.740000000000007));
#1273=CARTESIAN_POINT('Origin',(60.1109648294452,-23.5714760491365,-0.740000000000007));
#1274=CARTESIAN_POINT('Origin',(60.1109648294452,-23.6714760491365,-1.13999999999999));
#1275=CARTESIAN_POINT('Origin',(60.1109648294452,-23.5714760491365,-1.13999999999999));
#1276=CARTESIAN_POINT('Origin',(56.8859634565996,-23.5714760491365,-0.74));
#1277=CARTESIAN_POINT('',(56.8859634565996,-23.6714760491365,-0.74));
#1278=CARTESIAN_POINT('',(56.8859634565996,-23.5714760491365,-0.64));
#1279=CARTESIAN_POINT('Origin',(60.1109648294452,-22.1714760491365,-9.73999999998188));
#1280=CARTESIAN_POINT('',(60.1109648294452,-22.1714760491365,-10.2399999999819));
#1281=CARTESIAN_POINT('',(60.1109648294452,-22.1714760491365,-10.2399999999819));
#1282=CARTESIAN_POINT('',(60.6109648294451,-22.1714760491365,-9.73999999998187));
#1283=CARTESIAN_POINT('Origin',(60.1109648294452,-22.1714760491365,-9.73999999998188));
#1284=CARTESIAN_POINT('',(60.6109648294451,-22.1714760491365,-9.73999999998187));
#1285=CARTESIAN_POINT('Origin',(51.5109648294453,-22.1714760491365,-10.2399999999819));
#1286=CARTESIAN_POINT('',(51.5109648294453,-22.1714760491365,-10.2399999999819));
#1287=CARTESIAN_POINT('',(51.5109648294453,-22.1714760491365,-10.2399999999819));
#1288=CARTESIAN_POINT('',(52.5859648294453,-22.1714760491365,-10.2399999999819));
#1289=CARTESIAN_POINT('Origin',(51.5109648294451,-22.1714760491365,-5.43999450859979));
#1290=CARTESIAN_POINT('',(51.500696688915,-22.1714760491365,-0.64));
#1291=CARTESIAN_POINT('',(51.500696688915,-22.1714760491365,-0.64));
#1292=CARTESIAN_POINT('Origin',(51.5109648294451,-22.1714760491365,-5.43999450859979));
#1293=CARTESIAN_POINT('Origin',(53.6609620837541,-23.6714760491365,-5.43999999999094));
#1294=CARTESIAN_POINT('',(48.7827858015112,-23.6714760491365,-6.2275));
#1295=CARTESIAN_POINT('',(48.7827858015112,-23.6714760491365,-5.5675));
#1296=CARTESIAN_POINT('',(48.7827858015112,-23.6714760491365,-5.83374999999547));
#1297=CARTESIAN_POINT('',(50.4327858015112,-23.6714760491365,-3.9175));
#1298=CARTESIAN_POINT('Origin',(50.4327858015112,-23.6714760491365,-5.5675));
#1299=CARTESIAN_POINT('',(56.8727858015111,-23.6714760491365,-3.9175));
#1300=CARTESIAN_POINT('',(52.0468739426326,-23.6714760491365,-3.9175));
#1301=CARTESIAN_POINT('',(58.5227858015111,-23.6714760491365,-5.5675));
#1302=CARTESIAN_POINT('Origin',(56.8727858015111,-23.6714760491365,-5.5675));
#1303=CARTESIAN_POINT('',(58.5227858015111,-23.6714760491365,-6.2275));
#1304=CARTESIAN_POINT('',(58.5227858015111,-23.6714760491365,-5.50374999999547));
#1305=CARTESIAN_POINT('',(56.8727858015111,-23.6714760491365,-7.8775));
#1306=CARTESIAN_POINT('Origin',(56.8727858015111,-23.6714760491365,-6.2275));
#1307=CARTESIAN_POINT('',(50.4327858015112,-23.6714760491365,-7.8775));
#1308=CARTESIAN_POINT('',(55.2668739426326,-23.6714760491365,-7.8775));
#1309=CARTESIAN_POINT('Origin',(50.4327858015112,-23.6714760491365,-6.2275));
#1310=CARTESIAN_POINT('Origin',(54.4877858015111,-20.6714760491365,-3.6675));
#1311=CARTESIAN_POINT('',(52.8177858015111,-20.6714760491365,-3.6675));
#1312=CARTESIAN_POINT('',(54.4877858015111,-20.6714760491365,-3.6675));
#1313=CARTESIAN_POINT('',(54.0743753154782,-20.6714760491365,-3.6675));
#1314=CARTESIAN_POINT('',(52.8177858015111,-15.6714760491365,-3.6675));
#1315=CARTESIAN_POINT('',(52.8177858015111,-20.6714760491365,-3.6675));
#1316=CARTESIAN_POINT('',(54.4877858015111,-15.6714760491365,-3.6675));
#1317=CARTESIAN_POINT('',(54.4877858015111,-15.6714760491365,-3.6675));
#1318=CARTESIAN_POINT('',(54.4877858015111,-20.6714760491365,-3.6675));
#1319=CARTESIAN_POINT('Origin',(54.4877858015111,-20.6714760491365,-0.5));
#1320=CARTESIAN_POINT('',(54.4877858015111,-20.6714760491365,-0.5));
#1321=CARTESIAN_POINT('',(54.4877858015112,-20.6714760491365,-3.175));
#1322=CARTESIAN_POINT('',(54.4877858015111,-15.6714760491365,-0.5));
#1323=CARTESIAN_POINT('',(54.4877858015111,-15.6714760491365,-0.5));
#1324=CARTESIAN_POINT('',(54.4877858015111,-20.6714760491365,-0.5));
#1325=CARTESIAN_POINT('Origin',(52.8177858015111,-20.6714760491365,-0.5));
#1326=CARTESIAN_POINT('',(52.8177858015111,-20.6714760491365,-0.5));
#1327=CARTESIAN_POINT('',(53.2393753154781,-20.6714760491365,-0.5));
#1328=CARTESIAN_POINT('',(52.8177858015111,-15.6714760491365,-0.5));
#1329=CARTESIAN_POINT('',(52.8177858015111,-15.6714760491365,-0.5));
#1330=CARTESIAN_POINT('',(52.8177858015111,-20.6714760491365,-0.5));
#1331=CARTESIAN_POINT('Origin',(52.8177858015111,-20.6714760491365,-3.6675));
#1332=CARTESIAN_POINT('',(52.8177858015111,-20.6714760491365,-4.75875));
#1333=CARTESIAN_POINT('',(52.8177858015111,-15.6714760491365,-3.6675));
#1334=CARTESIAN_POINT('Origin',(53.6527858015111,-15.6714760491365,-4.18875));
#1335=CARTESIAN_POINT('Origin',(53.6527858015111,-20.6714760491365,-5.13875));
#1336=CARTESIAN_POINT('',(48.9177858015112,-20.6714760491365,-4.91383724291498));
#1337=CARTESIAN_POINT('',(48.7827858015112,-20.6714760491365,-5.5675));
#1338=CARTESIAN_POINT('Origin',(50.4327858015112,-20.6714760491365,-5.5675));
#1339=CARTESIAN_POINT('',(48.7827858015112,-20.6714760491365,-6.2275));
#1340=CARTESIAN_POINT('',(48.7827858015112,-20.6714760491365,-6.03875));
#1341=CARTESIAN_POINT('',(50.4327858015112,-20.6714760491365,-7.8775));
#1342=CARTESIAN_POINT('Origin',(50.4327858015112,-20.6714760491365,-6.2275));
#1343=CARTESIAN_POINT('',(56.8727858015111,-20.6714760491365,-7.8775));
#1344=CARTESIAN_POINT('',(55.2668753154781,-20.6714760491365,-7.8775));
#1345=CARTESIAN_POINT('',(58.5227858015111,-20.6714760491365,-6.2275));
#1346=CARTESIAN_POINT('Origin',(56.8727858015111,-20.6714760491365,-6.2275));
#1347=CARTESIAN_POINT('',(58.5227858015111,-20.6714760491365,-5.5675));
#1348=CARTESIAN_POINT('',(58.5227858015111,-20.6714760491365,-5.70875));
#1349=CARTESIAN_POINT('',(58.3877858015111,-20.6714760491365,-4.91383724291498));
#1350=CARTESIAN_POINT('Origin',(56.8727858015111,-20.6714760491365,-5.5675));
#1351=CARTESIAN_POINT('',(58.3877858015111,-20.6714760491365,-6.4275));
#1352=CARTESIAN_POINT('',(58.3877858015111,-20.6714760491365,-6.4275));
#1353=CARTESIAN_POINT('',(57.0377858015112,-20.6714760491365,-7.7775));
#1354=CARTESIAN_POINT('Origin',(57.0377858015112,-20.6714760491365,-6.4275));
#1355=CARTESIAN_POINT('',(50.2677858015111,-20.6714760491365,-7.7775));
#1356=CARTESIAN_POINT('',(57.0377858015111,-20.6714760491365,-7.7775));
#1357=CARTESIAN_POINT('',(48.9177858015112,-20.6714760491365,-6.4275));
#1358=CARTESIAN_POINT('Origin',(50.2677858015112,-20.6714760491365,-6.4275));
#1359=CARTESIAN_POINT('',(48.9177858015112,-20.6714760491365,0.00249999999999917));
#1360=CARTESIAN_POINT('Origin',(57.0377858015112,-20.6714760491365,-6.4275));
#1361=CARTESIAN_POINT('',(58.3877858015111,-15.6714760491365,-6.4275));
#1362=CARTESIAN_POINT('',(58.3877858015111,-20.6714760491365,-6.4275));
#1363=CARTESIAN_POINT('',(57.0377858015112,-15.6714760491365,-7.7775));
#1364=CARTESIAN_POINT('Origin',(57.0377858015112,-15.6714760491365,-6.4275));
#1365=CARTESIAN_POINT('',(57.0377858015112,-20.6714760491365,-7.7775));
#1366=CARTESIAN_POINT('Origin',(50.2677858015111,-20.6714760491365,-7.7775));
#1367=CARTESIAN_POINT('',(50.2677858015111,-15.6714760491365,-7.7775));
#1368=CARTESIAN_POINT('',(57.0377858015111,-15.6714760491365,-7.7775));
#1369=CARTESIAN_POINT('',(50.2677858015111,-20.6714760491365,-7.7775));
#1370=CARTESIAN_POINT('Origin',(50.2677858015112,-20.6714760491365,-6.4275));
#1371=CARTESIAN_POINT('',(48.9177858015112,-15.6714760491365,-6.4275));
#1372=CARTESIAN_POINT('Origin',(50.2677858015112,-15.6714760491365,-6.4275));
#1373=CARTESIAN_POINT('',(48.9177858015112,-20.6714760491365,-6.4275));
#1374=CARTESIAN_POINT('Origin',(48.9177858015112,-20.6714760491365,-0.5));
#1375=CARTESIAN_POINT('',(48.9177858015112,-20.6714760491365,-0.5));
#1376=CARTESIAN_POINT('',(48.9177858015112,-20.6714760491365,-3.175));
#1377=CARTESIAN_POINT('',(48.9177858015112,-15.6714760491365,-0.5));
#1378=CARTESIAN_POINT('',(48.9177858015112,-15.6714760491365,0.00249999999999917));
#1379=CARTESIAN_POINT('',(48.9177858015112,-20.6714760491365,-0.5));
#1380=CARTESIAN_POINT('Origin',(46.9177858015112,-20.6714760491365,-0.5));
#1381=CARTESIAN_POINT('',(46.9177858015112,-20.6714760491365,-0.5));
#1382=CARTESIAN_POINT('',(50.2893753154781,-20.6714760491365,-0.5));
#1383=CARTESIAN_POINT('',(46.9177858015112,-15.6714760491365,-0.5));
#1384=CARTESIAN_POINT('',(46.9177858015112,-15.6714760491365,-0.5));
#1385=CARTESIAN_POINT('',(46.9177858015112,-20.6714760491365,-0.5));
#1386=CARTESIAN_POINT('Origin',(46.9177858015112,-20.6714760491365,-7.4275));
#1387=CARTESIAN_POINT('',(46.9177858015112,-20.6714760491365,-7.4275));
#1388=CARTESIAN_POINT('',(46.9177858015079,-20.6714760491365,-6.63875000001384));
#1389=CARTESIAN_POINT('',(46.9177858015112,-15.6714760491365,-7.4275));
#1390=CARTESIAN_POINT('',(46.9177858015112,-15.6714760491365,-7.4275));
#1391=CARTESIAN_POINT('',(46.9177858015112,-20.6714760491365,-7.4275));
#1392=CARTESIAN_POINT('Origin',(49.2677858015112,-20.6714760491365,-7.4275));
#1393=CARTESIAN_POINT('',(49.2677858015112,-20.6714760491365,-9.7775));
#1394=CARTESIAN_POINT('Origin',(49.2677858015112,-20.6714760491365,-7.4275));
#1395=CARTESIAN_POINT('',(49.2677858015112,-15.6714760491365,-9.7775));
#1396=CARTESIAN_POINT('Origin',(49.2677858015112,-15.6714760491365,-7.4275));
#1397=CARTESIAN_POINT('',(49.2677858015112,-20.6714760491365,-9.7775));
#1398=CARTESIAN_POINT('Origin',(58.0377858015112,-20.6714760491365,-9.7775));
#1399=CARTESIAN_POINT('',(58.0377858015112,-20.6714760491365,-9.7775));
#1400=CARTESIAN_POINT('',(55.8493753154782,-20.6714760491365,-9.7775));
#1401=CARTESIAN_POINT('',(58.0377858015112,-15.6714760491365,-9.7775));
#1402=CARTESIAN_POINT('',(58.0377858015112,-15.6714760491365,-9.7775));
#1403=CARTESIAN_POINT('',(58.0377858015112,-20.6714760491365,-9.7775));
#1404=CARTESIAN_POINT('Origin',(58.0377858015112,-20.6714760491365,-7.42750000000001));
#1405=CARTESIAN_POINT('',(60.3877858015112,-20.6714760491365,-7.42750000000001));
#1406=CARTESIAN_POINT('Origin',(58.0377858015112,-20.6714760491365,-7.42750000000001));
#1407=CARTESIAN_POINT('',(60.3877858015112,-15.6714760491365,-7.42750000000001));
#1408=CARTESIAN_POINT('Origin',(58.0377858015112,-15.6714760491365,-7.42750000000001));
#1409=CARTESIAN_POINT('',(60.3877858015112,-20.6714760491365,-7.42750000000001));
#1410=CARTESIAN_POINT('Origin',(60.3877858015112,-20.6714760491365,-0.5));
#1411=CARTESIAN_POINT('',(60.3877858015112,-20.6714760491365,-0.5));
#1412=CARTESIAN_POINT('',(60.3877858015112,-20.6714760491365,-3.175));
#1413=CARTESIAN_POINT('',(60.3877858015112,-15.6714760491365,-0.5));
#1414=CARTESIAN_POINT('',(60.3877858015112,-15.6714760491365,-0.5));
#1415=CARTESIAN_POINT('',(60.3877858015112,-20.6714760491365,-0.5));
#1416=CARTESIAN_POINT('Origin',(58.3877858015111,-20.6714760491365,-0.5));
#1417=CARTESIAN_POINT('',(58.3877858015111,-20.6714760491365,-0.5));
#1418=CARTESIAN_POINT('',(56.0243753154782,-20.6714760491365,-0.5));
#1419=CARTESIAN_POINT('',(58.3877858015111,-15.6714760491365,-0.5));
#1420=CARTESIAN_POINT('',(58.3877858015111,-15.6714760491365,-0.5));
#1421=CARTESIAN_POINT('',(58.3877858015111,-20.6714760491365,-0.5));
#1422=CARTESIAN_POINT('Origin',(58.3877858015111,-20.6714760491365,-6.4275));
#1423=CARTESIAN_POINT('',(58.3877858015112,-20.6714760491365,-6.13875));
#1424=CARTESIAN_POINT('',(58.3877858015111,-15.6714760491365,-6.4275));
#1425=CARTESIAN_POINT('Origin',(53.6527858015111,-15.6714760491365,-5.13875));
#1426=CARTESIAN_POINT('Origin',(53.6609648294451,-20.6714760491365,-5.85));
#1427=CARTESIAN_POINT('',(44.7109648294451,-20.6714760491365,-10.21));
#1428=CARTESIAN_POINT('',(46.7109648294452,-20.6714760491365,-12.21));
#1429=CARTESIAN_POINT('Origin',(46.7109648294452,-20.6714760491365,-10.21));
#1430=CARTESIAN_POINT('',(44.7109648294451,-20.6714760491365,0.509999999999999));
#1431=CARTESIAN_POINT('',(44.7109648294451,-20.6714760491365,-10.21));
#1432=CARTESIAN_POINT('',(62.6109648294452,-20.6714760491365,0.51));
#1433=CARTESIAN_POINT('',(44.7109648294451,-20.6714760491365,0.51));
#1434=CARTESIAN_POINT('',(62.6109648294452,-20.6714760491365,-10.21));
#1435=CARTESIAN_POINT('',(62.6109648294452,-20.6714760491365,0.51));
#1436=CARTESIAN_POINT('',(60.6109648294451,-20.6714760491365,-12.21));
#1437=CARTESIAN_POINT('Origin',(60.6109648294451,-20.6714760491365,-10.21));
#1438=CARTESIAN_POINT('',(60.6109648294451,-20.6714760491365,-12.21));
#1439=CARTESIAN_POINT('',(56.8727858015111,-20.6714760491365,-3.9175));
#1440=CARTESIAN_POINT('Origin',(56.8727858015111,-20.6714760491365,-5.5675));
#1441=CARTESIAN_POINT('',(50.4327858015112,-20.6714760491365,-3.9175));
#1442=CARTESIAN_POINT('',(52.0468753154782,-20.6714760491365,-3.9175));
#1443=CARTESIAN_POINT('Origin',(50.4327858015112,-20.6714760491365,-5.5675));
#1444=CARTESIAN_POINT('Origin',(58.5227858015111,-23.6714760491365,-5.5675));
#1445=CARTESIAN_POINT('',(58.5227858015111,-23.6714760491365,-6.2275));
#1446=CARTESIAN_POINT('',(58.5227858015111,-23.6714760491365,-5.5675));
#1447=CARTESIAN_POINT('Origin',(56.8727858015111,-23.6714760491365,-5.5675));
#1448=CARTESIAN_POINT('',(56.8727858015111,-23.6714760491365,-3.9175));
#1449=CARTESIAN_POINT('Origin',(50.4327858015112,-23.6714760491365,-3.9175));
#1450=CARTESIAN_POINT('',(50.4327858015112,-23.6714760491365,-3.9175));
#1451=CARTESIAN_POINT('Origin',(50.4327858015112,-23.6714760491365,-5.5675));
#1452=CARTESIAN_POINT('',(48.7827858015112,-23.6714760491365,-5.5675));
#1453=CARTESIAN_POINT('Origin',(48.7827858015112,-23.6714760491365,-6.2275));
#1454=CARTESIAN_POINT('',(48.7827858015112,-23.6714760491365,-6.2275));
#1455=CARTESIAN_POINT('Origin',(50.4327858015112,-23.6714760491365,-6.2275));
#1456=CARTESIAN_POINT('',(50.4327858015112,-23.6714760491365,-7.8775));
#1457=CARTESIAN_POINT('Origin',(56.8727858015111,-23.6714760491365,-7.8775));
#1458=CARTESIAN_POINT('',(56.8727858015111,-23.6714760491365,-7.8775));
#1459=CARTESIAN_POINT('Origin',(56.8727858015111,-23.6714760491365,-6.2275));
#1460=CARTESIAN_POINT('Origin',(60.1109648294452,-22.1714760491365,-0.64));
#1461=CARTESIAN_POINT('',(60.1109648294452,-22.1714760491365,-0.640000000000007));
#1462=CARTESIAN_POINT('',(60.1109648294452,-22.1714760491365,-0.640000000000007));
#1463=CARTESIAN_POINT('',(56.8859648294452,-22.1714760491365,-0.639999999999999));
#1464=CARTESIAN_POINT('Origin',(60.1109648294452,-22.1714760491365,-1.13999999999999));
#1465=CARTESIAN_POINT('',(60.6109648294451,-22.1714760491365,-1.13999999999999));
#1466=CARTESIAN_POINT('',(60.6109648294451,-22.1714760491365,-1.13999999999999));
#1467=CARTESIAN_POINT('Origin',(60.1109648294452,-22.1714760491365,-1.13999999999999));
#1468=CARTESIAN_POINT('Origin',(60.6109648294451,-22.1714760491365,-9.73999999998187));
#1469=CARTESIAN_POINT('',(60.6109648294451,-22.1714760491365,-7.79499999999093));
#1470=CARTESIAN_POINT('Origin',(44.7109648294451,-20.6714760491365,0.509999999999999));
#1471=CARTESIAN_POINT('',(44.7109648294451,-22.1714760491365,-10.21));
#1472=CARTESIAN_POINT('',(44.7109648294451,-20.6714760491365,-10.21));
#1473=CARTESIAN_POINT('',(44.7109648294451,-22.1714760491365,0.509999999999999));
#1474=CARTESIAN_POINT('',(44.7109648294451,-22.1714760491365,-10.21));
#1475=CARTESIAN_POINT('',(44.7109648294451,-20.6714760491365,0.509999999999999));
#1476=CARTESIAN_POINT('Origin',(62.6109648294452,-20.6714760491365,0.51));
#1477=CARTESIAN_POINT('',(62.6109648294452,-22.1714760491365,0.509999999999999));
#1478=CARTESIAN_POINT('',(44.7109648294451,-22.1714760491365,0.51));
#1479=CARTESIAN_POINT('',(62.6109648294452,-20.6714760491365,0.51));
#1480=CARTESIAN_POINT('Origin',(62.6109648294452,-20.6714760491365,-10.21));
#1481=CARTESIAN_POINT('',(62.6109648294452,-22.1714760491365,-10.21));
#1482=CARTESIAN_POINT('',(62.6109648294452,-22.1714760491365,0.51));
#1483=CARTESIAN_POINT('',(62.6109648294452,-20.6714760491365,-10.21));
#1484=CARTESIAN_POINT('Origin',(60.6109648294451,-20.6714760491365,-10.21));
#1485=CARTESIAN_POINT('',(60.6109648294451,-22.1714760491365,-12.21));
#1486=CARTESIAN_POINT('Origin',(60.6109648294451,-22.1714760491365,-10.21));
#1487=CARTESIAN_POINT('',(60.6109648294451,-20.6714760491365,-12.21));
#1488=CARTESIAN_POINT('Origin',(46.7109648294452,-20.6714760491365,-12.21));
#1489=CARTESIAN_POINT('',(46.7109648294452,-22.1714760491365,-12.21));
#1490=CARTESIAN_POINT('',(60.6109648294451,-22.1714760491365,-12.21));
#1491=CARTESIAN_POINT('',(46.7109648294452,-20.6714760491365,-12.21));
#1492=CARTESIAN_POINT('Origin',(46.7109648294452,-20.6714760491365,-10.21));
#1493=CARTESIAN_POINT('Origin',(46.7109648294452,-22.1714760491365,-10.21));
#1494=CARTESIAN_POINT('Origin',(53.6609648294451,-22.1714760491365,-5.85));
#1495=UNCERTAINTY_MEASURE_WITH_UNIT(LENGTH_MEASURE(0.01),#1499,
'DISTANCE_ACCURACY_VALUE',
'Maximum model space distance between geometric entities at asserted c
onnectivities');
#1496=UNCERTAINTY_MEASURE_WITH_UNIT(LENGTH_MEASURE(0.01),#1499,
'DISTANCE_ACCURACY_VALUE',
'Maximum model space distance between geometric entities at asserted c
onnectivities');
#1497=(
GEOMETRIC_REPRESENTATION_CONTEXT(3)
GLOBAL_UNCERTAINTY_ASSIGNED_CONTEXT((#1495))
GLOBAL_UNIT_ASSIGNED_CONTEXT((#1499,#1500,#1501))
REPRESENTATION_CONTEXT('','3D')
);
#1498=(
GEOMETRIC_REPRESENTATION_CONTEXT(3)
GLOBAL_UNCERTAINTY_ASSIGNED_CONTEXT((#1496))
GLOBAL_UNIT_ASSIGNED_CONTEXT((#1499,#1500,#1501))
REPRESENTATION_CONTEXT('','3D')
);
#1499=(
LENGTH_UNIT()
NAMED_UNIT(*)
SI_UNIT(.MILLI.,.METRE.)
);
#1500=(
NAMED_UNIT(*)
PLANE_ANGLE_UNIT()
SI_UNIT($,.RADIAN.)
);
#1501=(
NAMED_UNIT(*)
SI_UNIT($,.STERADIAN.)
SOLID_ANGLE_UNIT()
);
#1502=SHAPE_DEFINITION_REPRESENTATION(#1503,#1504);
#1503=PRODUCT_DEFINITION_SHAPE('',$,#1506);
#1504=SHAPE_REPRESENTATION('',(#879),#1497);
#1505=PRODUCT_DEFINITION_CONTEXT('part definition',#1510,'design');
#1506=PRODUCT_DEFINITION('USB-GC','USB-GC v12',#1507,#1505);
#1507=PRODUCT_DEFINITION_FORMATION('',$,#1512);
#1508=PRODUCT_RELATED_PRODUCT_CATEGORY('USB-GC v12','USB-GC v12',(#1512));
#1509=APPLICATION_PROTOCOL_DEFINITION('international standard',
'automotive_design',2009,#1510);
#1510=APPLICATION_CONTEXT(
'Core Data for Automotive Mechanical Design Process');
#1511=PRODUCT_CONTEXT('part definition',#1510,'mechanical');
#1512=PRODUCT('USB-GC','USB-GC v12',$,(#1511));
#1513=PRESENTATION_STYLE_ASSIGNMENT((#1516));
#1514=PRESENTATION_STYLE_ASSIGNMENT((#1517));
#1515=PRESENTATION_STYLE_ASSIGNMENT((#1518));
#1516=SURFACE_STYLE_USAGE(.BOTH.,#1519);
#1517=SURFACE_STYLE_USAGE(.BOTH.,#1520);
#1518=SURFACE_STYLE_USAGE(.BOTH.,#1521);
#1519=SURFACE_SIDE_STYLE('',(#1522));
#1520=SURFACE_SIDE_STYLE('',(#1523));
#1521=SURFACE_SIDE_STYLE('',(#1524));
#1522=SURFACE_STYLE_FILL_AREA(#1525);
#1523=SURFACE_STYLE_FILL_AREA(#1526);
#1524=SURFACE_STYLE_FILL_AREA(#1527);
#1525=FILL_AREA_STYLE('Steel - Satin',(#1528));
#1526=FILL_AREA_STYLE('Plastic - Matte (Green)',(#1529));
#1527=FILL_AREA_STYLE('ABS (White)',(#1530));
#1528=FILL_AREA_STYLE_COLOUR('Steel - Satin',#1531);
#1529=FILL_AREA_STYLE_COLOUR('Plastic - Matte (Green)',#1532);
#1530=FILL_AREA_STYLE_COLOUR('ABS (White)',#1533);
#1531=COLOUR_RGB('Steel - Satin',0.627450980392157,0.627450980392157,0.627450980392157);
#1532=COLOUR_RGB('Plastic - Matte (Green)',0.266666666666667,0.588235294117647,
0.282352941176471);
#1533=COLOUR_RGB('ABS (White)',0.964705882352941,0.964705882352941,0.952941176470588);
ENDSEC;
END-ISO-10303-21;
