ISO-10303-21;
HEADER;
/* Generated by software containing ST-Developer
 * from STEP Tools, Inc. (www.steptools.com) 
 */

FILE_DESCRIPTION(
/* description */ (''),
/* implementation_level */ '2;1');

FILE_NAME(
/* name */ 'USB-GC-PCB-Jig.step',
/* time_stamp */ '2026-02-12T18:10:46+01:00',
/* author */ (''),
/* organization */ (''),
/* preprocessor_version */ 'ST-DEVELOPER v20.1',
/* originating_system */ 'Autodesk Translation Framework v14.24.0.0',
/* authorisation */ '');

FILE_SCHEMA (('AUTOMOTIVE_DESIGN { 1 0 10303 214 3 1 1 }'));
ENDSEC;

DATA;
#10=MECHANICAL_DESIGN_GEOMETRIC_PRESENTATION_REPRESENTATION('',(#13),#1059);
#11=SHAPE_REPRESENTATION_RELATIONSHIP('SRR','None',#1065,#12);
#12=ADVANCED_BREP_SHAPE_REPRESENTATION('',(#14),#1058);
#13=STYLED_ITEM('',(#1074),#14);
#14=MANIFOLD_SOLID_BREP('Body30',#639);
#15=FACE_BOUND('',#75,.T.);
#16=FACE_BOUND('',#86,.T.);
#17=FACE_BOUND('',#107,.T.);
#18=FACE_BOUND('',#108,.T.);
#19=PLANE('',#646);
#20=PLANE('',#652);
#21=PLANE('',#653);
#22=PLANE('',#654);
#23=PLANE('',#657);
#24=PLANE('',#660);
#25=PLANE('',#665);
#26=PLANE('',#670);
#27=PLANE('',#671);
#28=PLANE('',#672);
#29=PLANE('',#673);
#30=PLANE('',#674);
#31=PLANE('',#675);
#32=PLANE('',#676);
#33=PLANE('',#677);
#34=PLANE('',#680);
#35=PLANE('',#681);
#36=PLANE('',#682);
#37=PLANE('',#685);
#38=PLANE('',#688);
#39=PLANE('',#691);
#40=PLANE('',#694);
#41=FACE_OUTER_BOUND('',#73,.T.);
#42=FACE_OUTER_BOUND('',#74,.T.);
#43=FACE_OUTER_BOUND('',#76,.T.);
#44=FACE_OUTER_BOUND('',#77,.T.);
#45=FACE_OUTER_BOUND('',#78,.T.);
#46=FACE_OUTER_BOUND('',#79,.T.);
#47=FACE_OUTER_BOUND('',#80,.T.);
#48=FACE_OUTER_BOUND('',#81,.T.);
#49=FACE_OUTER_BOUND('',#82,.T.);
#50=FACE_OUTER_BOUND('',#83,.T.);
#51=FACE_OUTER_BOUND('',#84,.T.);
#52=FACE_OUTER_BOUND('',#85,.T.);
#53=FACE_OUTER_BOUND('',#87,.T.);
#54=FACE_OUTER_BOUND('',#88,.T.);
#55=FACE_OUTER_BOUND('',#89,.T.);
#56=FACE_OUTER_BOUND('',#90,.T.);
#57=FACE_OUTER_BOUND('',#91,.T.);
#58=FACE_OUTER_BOUND('',#92,.T.);
#59=FACE_OUTER_BOUND('',#93,.T.);
#60=FACE_OUTER_BOUND('',#94,.T.);
#61=FACE_OUTER_BOUND('',#95,.T.);
#62=FACE_OUTER_BOUND('',#96,.T.);
#63=FACE_OUTER_BOUND('',#97,.T.);
#64=FACE_OUTER_BOUND('',#98,.T.);
#65=FACE_OUTER_BOUND('',#99,.T.);
#66=FACE_OUTER_BOUND('',#100,.T.);
#67=FACE_OUTER_BOUND('',#101,.T.);
#68=FACE_OUTER_BOUND('',#102,.T.);
#69=FACE_OUTER_BOUND('',#103,.T.);
#70=FACE_OUTER_BOUND('',#104,.T.);
#71=FACE_OUTER_BOUND('',#105,.T.);
#72=FACE_OUTER_BOUND('',#106,.T.);
#73=EDGE_LOOP('',(#417,#418,#419,#420,#421,#422,#423,#424));
#74=EDGE_LOOP('',(#425,#426,#427,#428,#429,#430,#431,#432,#433,#434,#435));
#75=EDGE_LOOP('',(#436,#437,#438,#439,#440,#441,#442,#443,#444,#445,#446));
#76=EDGE_LOOP('',(#447,#448,#449,#450));
#77=EDGE_LOOP('',(#451,#452,#453,#454));
#78=EDGE_LOOP('',(#455,#456,#457,#458));
#79=EDGE_LOOP('',(#459,#460,#461,#462));
#80=EDGE_LOOP('',(#463,#464,#465,#466));
#81=EDGE_LOOP('',(#467,#468,#469,#470));
#82=EDGE_LOOP('',(#471,#472,#473,#474));
#83=EDGE_LOOP('',(#475,#476,#477,#478));
#84=EDGE_LOOP('',(#479,#480,#481,#482));
#85=EDGE_LOOP('',(#483,#484,#485,#486,#487,#488,#489,#490));
#86=EDGE_LOOP('',(#491,#492,#493,#494,#495,#496,#497,#498,#499,#500));
#87=EDGE_LOOP('',(#501,#502,#503,#504));
#88=EDGE_LOOP('',(#505,#506,#507,#508));
#89=EDGE_LOOP('',(#509,#510,#511,#512));
#90=EDGE_LOOP('',(#513,#514,#515,#516));
#91=EDGE_LOOP('',(#517,#518,#519,#520));
#92=EDGE_LOOP('',(#521,#522,#523,#524));
#93=EDGE_LOOP('',(#525,#526,#527,#528));
#94=EDGE_LOOP('',(#529,#530,#531,#532));
#95=EDGE_LOOP('',(#533,#534,#535,#536));
#96=EDGE_LOOP('',(#537,#538,#539,#540));
#97=EDGE_LOOP('',(#541,#542,#543,#544));
#98=EDGE_LOOP('',(#545,#546,#547,#548));
#99=EDGE_LOOP('',(#549,#550,#551,#552));
#100=EDGE_LOOP('',(#553,#554,#555,#556));
#101=EDGE_LOOP('',(#557,#558,#559,#560));
#102=EDGE_LOOP('',(#561,#562,#563,#564));
#103=EDGE_LOOP('',(#565,#566,#567,#568));
#104=EDGE_LOOP('',(#569,#570,#571,#572));
#105=EDGE_LOOP('',(#573,#574,#575,#576));
#106=EDGE_LOOP('',(#577,#578,#579,#580,#581,#582,#583,#584));
#107=EDGE_LOOP('',(#585));
#108=EDGE_LOOP('',(#586,#587,#588,#589,#590,#591,#592,#593,#594,#595,#596));
#109=CIRCLE('',#642,6.42923994776259);
#110=CIRCLE('',#643,6.42923994776259);
#111=CIRCLE('',#644,6.42923994776259);
#112=CIRCLE('',#645,6.42923994776259);
#113=CIRCLE('',#647,2.);
#114=CIRCLE('',#648,2.);
#115=CIRCLE('',#649,2.00000000000001);
#116=CIRCLE('',#650,2.00000000000003);
#117=CIRCLE('',#651,0.35000000000001);
#118=CIRCLE('',#656,2.);
#119=CIRCLE('',#659,2.00000000000001);
#120=CIRCLE('',#662,2.00000000000003);
#121=CIRCLE('',#664,2.);
#122=CIRCLE('',#666,2.99999999999999);
#123=CIRCLE('',#667,2.99999999999997);
#124=CIRCLE('',#668,2.99999999999999);
#125=CIRCLE('',#669,2.99999999999999);
#126=CIRCLE('',#679,0.35000000000001);
#127=CIRCLE('',#684,2.99999999999999);
#128=CIRCLE('',#687,3.00000000000001);
#129=CIRCLE('',#690,3.);
#130=CIRCLE('',#693,3.);
#131=LINE('',#877,#199);
#132=LINE('',#881,#200);
#133=LINE('',#885,#201);
#134=LINE('',#890,#202);
#135=LINE('',#894,#203);
#136=LINE('',#898,#204);
#137=LINE('',#902,#205);
#138=LINE('',#905,#206);
#139=LINE('',#908,#207);
#140=LINE('',#910,#208);
#141=LINE('',#912,#209);
#142=LINE('',#916,#210);
#143=LINE('',#918,#211);
#144=LINE('',#920,#212);
#145=LINE('',#922,#213);
#146=LINE('',#924,#214);
#147=LINE('',#926,#215);
#148=LINE('',#927,#216);
#149=LINE('',#930,#217);
#150=LINE('',#931,#218);
#151=LINE('',#934,#219);
#152=LINE('',#935,#220);
#153=LINE('',#938,#221);
#154=LINE('',#940,#222);
#155=LINE('',#941,#223);
#156=LINE('',#945,#224);
#157=LINE('',#948,#225);
#158=LINE('',#949,#226);
#159=LINE('',#953,#227);
#160=LINE('',#956,#228);
#161=LINE('',#957,#229);
#162=LINE('',#967,#230);
#163=LINE('',#971,#231);
#164=LINE('',#975,#232);
#165=LINE('',#978,#233);
#166=LINE('',#981,#234);
#167=LINE('',#983,#235);
#168=LINE('',#984,#236);
#169=LINE('',#987,#237);
#170=LINE('',#988,#238);
#171=LINE('',#991,#239);
#172=LINE('',#992,#240);
#173=LINE('',#995,#241);
#174=LINE('',#996,#242);
#175=LINE('',#999,#243);
#176=LINE('',#1000,#244);
#177=LINE('',#1003,#245);
#178=LINE('',#1004,#246);
#179=LINE('',#1007,#247);
#180=LINE('',#1008,#248);
#181=LINE('',#1011,#249);
#182=LINE('',#1012,#250);
#183=LINE('',#1015,#251);
#184=LINE('',#1019,#252);
#185=LINE('',#1020,#253);
#186=LINE('',#1022,#254);
#187=LINE('',#1026,#255);
#188=LINE('',#1027,#256);
#189=LINE('',#1028,#257);
#190=LINE('',#1032,#258);
#191=LINE('',#1035,#259);
#192=LINE('',#1036,#260);
#193=LINE('',#1040,#261);
#194=LINE('',#1043,#262);
#195=LINE('',#1044,#263);
#196=LINE('',#1048,#264);
#197=LINE('',#1051,#265);
#198=LINE('',#1052,#266);
#199=VECTOR('',#699,10.);
#200=VECTOR('',#702,10.);
#201=VECTOR('',#705,6.42923994776259);
#202=VECTOR('',#712,10.);
#203=VECTOR('',#715,10.);
#204=VECTOR('',#718,10.);
#205=VECTOR('',#721,10.);
#206=VECTOR('',#724,10.);
#207=VECTOR('',#725,10.);
#208=VECTOR('',#726,10.);
#209=VECTOR('',#727,10.);
#210=VECTOR('',#730,10.);
#211=VECTOR('',#731,10.);
#212=VECTOR('',#732,10.);
#213=VECTOR('',#733,10.);
#214=VECTOR('',#734,10.);
#215=VECTOR('',#735,10.);
#216=VECTOR('',#736,10.);
#217=VECTOR('',#739,10.);
#218=VECTOR('',#740,10.);
#219=VECTOR('',#743,10.);
#220=VECTOR('',#744,10.);
#221=VECTOR('',#747,10.);
#222=VECTOR('',#748,10.);
#223=VECTOR('',#749,10.);
#224=VECTOR('',#754,10.);
#225=VECTOR('',#757,10.);
#226=VECTOR('',#758,10.);
#227=VECTOR('',#763,10.);
#228=VECTOR('',#766,10.);
#229=VECTOR('',#767,10.);
#230=VECTOR('',#780,10.);
#231=VECTOR('',#783,10.);
#232=VECTOR('',#786,10.);
#233=VECTOR('',#789,10.);
#234=VECTOR('',#792,10.);
#235=VECTOR('',#793,10.);
#236=VECTOR('',#794,10.);
#237=VECTOR('',#797,10.);
#238=VECTOR('',#798,10.);
#239=VECTOR('',#801,10.);
#240=VECTOR('',#802,10.);
#241=VECTOR('',#805,10.);
#242=VECTOR('',#806,10.);
#243=VECTOR('',#809,10.);
#244=VECTOR('',#810,10.);
#245=VECTOR('',#813,10.);
#246=VECTOR('',#814,10.);
#247=VECTOR('',#817,10.);
#248=VECTOR('',#818,10.);
#249=VECTOR('',#821,10.);
#250=VECTOR('',#822,10.);
#251=VECTOR('',#825,10.);
#252=VECTOR('',#830,10.);
#253=VECTOR('',#831,10.);
#254=VECTOR('',#834,10.);
#255=VECTOR('',#837,10.);
#256=VECTOR('',#838,10.);
#257=VECTOR('',#839,10.);
#258=VECTOR('',#844,10.);
#259=VECTOR('',#847,10.);
#260=VECTOR('',#848,10.);
#261=VECTOR('',#853,10.);
#262=VECTOR('',#856,10.);
#263=VECTOR('',#857,10.);
#264=VECTOR('',#862,10.);
#265=VECTOR('',#865,10.);
#266=VECTOR('',#866,10.);
#267=VERTEX_POINT('',#875);
#268=VERTEX_POINT('',#876);
#269=VERTEX_POINT('',#878);
#270=VERTEX_POINT('',#880);
#271=VERTEX_POINT('',#882);
#272=VERTEX_POINT('',#884);
#273=VERTEX_POINT('',#889);
#274=VERTEX_POINT('',#891);
#275=VERTEX_POINT('',#893);
#276=VERTEX_POINT('',#895);
#277=VERTEX_POINT('',#897);
#278=VERTEX_POINT('',#899);
#279=VERTEX_POINT('',#901);
#280=VERTEX_POINT('',#903);
#281=VERTEX_POINT('',#906);
#282=VERTEX_POINT('',#907);
#283=VERTEX_POINT('',#909);
#284=VERTEX_POINT('',#911);
#285=VERTEX_POINT('',#913);
#286=VERTEX_POINT('',#915);
#287=VERTEX_POINT('',#917);
#288=VERTEX_POINT('',#919);
#289=VERTEX_POINT('',#921);
#290=VERTEX_POINT('',#923);
#291=VERTEX_POINT('',#925);
#292=VERTEX_POINT('',#929);
#293=VERTEX_POINT('',#933);
#294=VERTEX_POINT('',#937);
#295=VERTEX_POINT('',#939);
#296=VERTEX_POINT('',#943);
#297=VERTEX_POINT('',#947);
#298=VERTEX_POINT('',#951);
#299=VERTEX_POINT('',#955);
#300=VERTEX_POINT('',#963);
#301=VERTEX_POINT('',#964);
#302=VERTEX_POINT('',#966);
#303=VERTEX_POINT('',#968);
#304=VERTEX_POINT('',#970);
#305=VERTEX_POINT('',#972);
#306=VERTEX_POINT('',#974);
#307=VERTEX_POINT('',#976);
#308=VERTEX_POINT('',#980);
#309=VERTEX_POINT('',#982);
#310=VERTEX_POINT('',#986);
#311=VERTEX_POINT('',#990);
#312=VERTEX_POINT('',#994);
#313=VERTEX_POINT('',#998);
#314=VERTEX_POINT('',#1002);
#315=VERTEX_POINT('',#1006);
#316=VERTEX_POINT('',#1010);
#317=VERTEX_POINT('',#1014);
#318=VERTEX_POINT('',#1018);
#319=VERTEX_POINT('',#1024);
#320=VERTEX_POINT('',#1025);
#321=VERTEX_POINT('',#1030);
#322=VERTEX_POINT('',#1034);
#323=VERTEX_POINT('',#1038);
#324=VERTEX_POINT('',#1042);
#325=VERTEX_POINT('',#1046);
#326=VERTEX_POINT('',#1050);
#327=EDGE_CURVE('',#267,#268,#131,.T.);
#328=EDGE_CURVE('',#269,#267,#109,.T.);
#329=EDGE_CURVE('',#270,#269,#132,.T.);
#330=EDGE_CURVE('',#271,#270,#110,.T.);
#331=EDGE_CURVE('',#271,#272,#133,.T.);
#332=EDGE_CURVE('',#272,#272,#111,.T.);
#333=EDGE_CURVE('',#268,#271,#112,.T.);
#334=EDGE_CURVE('',#270,#273,#134,.T.);
#335=EDGE_CURVE('',#273,#274,#113,.T.);
#336=EDGE_CURVE('',#274,#275,#135,.T.);
#337=EDGE_CURVE('',#275,#276,#114,.T.);
#338=EDGE_CURVE('',#276,#277,#136,.T.);
#339=EDGE_CURVE('',#277,#278,#115,.T.);
#340=EDGE_CURVE('',#278,#279,#137,.T.);
#341=EDGE_CURVE('',#279,#280,#116,.T.);
#342=EDGE_CURVE('',#280,#268,#138,.T.);
#343=EDGE_CURVE('',#281,#282,#139,.T.);
#344=EDGE_CURVE('',#282,#283,#140,.T.);
#345=EDGE_CURVE('',#283,#284,#141,.T.);
#346=EDGE_CURVE('',#284,#285,#117,.T.);
#347=EDGE_CURVE('',#285,#286,#142,.T.);
#348=EDGE_CURVE('',#286,#287,#143,.T.);
#349=EDGE_CURVE('',#287,#288,#144,.T.);
#350=EDGE_CURVE('',#288,#289,#145,.T.);
#351=EDGE_CURVE('',#289,#290,#146,.T.);
#352=EDGE_CURVE('',#290,#291,#147,.T.);
#353=EDGE_CURVE('',#291,#281,#148,.T.);
#354=EDGE_CURVE('',#292,#269,#149,.T.);
#355=EDGE_CURVE('',#273,#292,#150,.T.);
#356=EDGE_CURVE('',#280,#293,#151,.T.);
#357=EDGE_CURVE('',#267,#293,#152,.T.);
#358=EDGE_CURVE('',#274,#294,#153,.T.);
#359=EDGE_CURVE('',#295,#294,#154,.T.);
#360=EDGE_CURVE('',#275,#295,#155,.T.);
#361=EDGE_CURVE('',#296,#295,#118,.T.);
#362=EDGE_CURVE('',#276,#296,#156,.T.);
#363=EDGE_CURVE('',#297,#296,#157,.T.);
#364=EDGE_CURVE('',#277,#297,#158,.T.);
#365=EDGE_CURVE('',#298,#297,#119,.T.);
#366=EDGE_CURVE('',#278,#298,#159,.T.);
#367=EDGE_CURVE('',#299,#298,#160,.T.);
#368=EDGE_CURVE('',#279,#299,#161,.T.);
#369=EDGE_CURVE('',#293,#299,#120,.T.);
#370=EDGE_CURVE('',#294,#292,#121,.T.);
#371=EDGE_CURVE('',#300,#301,#122,.T.);
#372=EDGE_CURVE('',#301,#302,#162,.T.);
#373=EDGE_CURVE('',#302,#303,#123,.T.);
#374=EDGE_CURVE('',#303,#304,#163,.T.);
#375=EDGE_CURVE('',#304,#305,#124,.T.);
#376=EDGE_CURVE('',#305,#306,#164,.T.);
#377=EDGE_CURVE('',#306,#307,#125,.T.);
#378=EDGE_CURVE('',#307,#300,#165,.T.);
#379=EDGE_CURVE('',#287,#308,#166,.T.);
#380=EDGE_CURVE('',#309,#308,#167,.T.);
#381=EDGE_CURVE('',#288,#309,#168,.T.);
#382=EDGE_CURVE('',#310,#309,#169,.T.);
#383=EDGE_CURVE('',#289,#310,#170,.T.);
#384=EDGE_CURVE('',#311,#310,#171,.T.);
#385=EDGE_CURVE('',#290,#311,#172,.T.);
#386=EDGE_CURVE('',#312,#311,#173,.T.);
#387=EDGE_CURVE('',#291,#312,#174,.T.);
#388=EDGE_CURVE('',#313,#312,#175,.T.);
#389=EDGE_CURVE('',#281,#313,#176,.T.);
#390=EDGE_CURVE('',#314,#313,#177,.T.);
#391=EDGE_CURVE('',#282,#314,#178,.T.);
#392=EDGE_CURVE('',#286,#315,#179,.T.);
#393=EDGE_CURVE('',#308,#315,#180,.T.);
#394=EDGE_CURVE('',#285,#316,#181,.T.);
#395=EDGE_CURVE('',#315,#316,#182,.T.);
#396=EDGE_CURVE('',#284,#317,#183,.T.);
#397=EDGE_CURVE('',#316,#317,#126,.T.);
#398=EDGE_CURVE('',#283,#318,#184,.T.);
#399=EDGE_CURVE('',#317,#318,#185,.T.);
#400=EDGE_CURVE('',#318,#314,#186,.T.);
#401=EDGE_CURVE('',#319,#320,#187,.T.);
#402=EDGE_CURVE('',#319,#304,#188,.T.);
#403=EDGE_CURVE('',#320,#303,#189,.T.);
#404=EDGE_CURVE('',#321,#320,#127,.T.);
#405=EDGE_CURVE('',#321,#302,#190,.T.);
#406=EDGE_CURVE('',#321,#322,#191,.T.);
#407=EDGE_CURVE('',#322,#301,#192,.T.);
#408=EDGE_CURVE('',#323,#322,#128,.T.);
#409=EDGE_CURVE('',#323,#300,#193,.T.);
#410=EDGE_CURVE('',#323,#324,#194,.T.);
#411=EDGE_CURVE('',#324,#307,#195,.T.);
#412=EDGE_CURVE('',#325,#324,#129,.T.);
#413=EDGE_CURVE('',#325,#306,#196,.T.);
#414=EDGE_CURVE('',#325,#326,#197,.T.);
#415=EDGE_CURVE('',#326,#305,#198,.T.);
#416=EDGE_CURVE('',#319,#326,#130,.T.);
#417=ORIENTED_EDGE('',*,*,#327,.F.);
#418=ORIENTED_EDGE('',*,*,#328,.F.);
#419=ORIENTED_EDGE('',*,*,#329,.F.);
#420=ORIENTED_EDGE('',*,*,#330,.F.);
#421=ORIENTED_EDGE('',*,*,#331,.T.);
#422=ORIENTED_EDGE('',*,*,#332,.F.);
#423=ORIENTED_EDGE('',*,*,#331,.F.);
#424=ORIENTED_EDGE('',*,*,#333,.F.);
#425=ORIENTED_EDGE('',*,*,#333,.T.);
#426=ORIENTED_EDGE('',*,*,#330,.T.);
#427=ORIENTED_EDGE('',*,*,#334,.T.);
#428=ORIENTED_EDGE('',*,*,#335,.T.);
#429=ORIENTED_EDGE('',*,*,#336,.T.);
#430=ORIENTED_EDGE('',*,*,#337,.T.);
#431=ORIENTED_EDGE('',*,*,#338,.T.);
#432=ORIENTED_EDGE('',*,*,#339,.T.);
#433=ORIENTED_EDGE('',*,*,#340,.T.);
#434=ORIENTED_EDGE('',*,*,#341,.T.);
#435=ORIENTED_EDGE('',*,*,#342,.T.);
#436=ORIENTED_EDGE('',*,*,#343,.T.);
#437=ORIENTED_EDGE('',*,*,#344,.T.);
#438=ORIENTED_EDGE('',*,*,#345,.T.);
#439=ORIENTED_EDGE('',*,*,#346,.T.);
#440=ORIENTED_EDGE('',*,*,#347,.T.);
#441=ORIENTED_EDGE('',*,*,#348,.T.);
#442=ORIENTED_EDGE('',*,*,#349,.T.);
#443=ORIENTED_EDGE('',*,*,#350,.T.);
#444=ORIENTED_EDGE('',*,*,#351,.T.);
#445=ORIENTED_EDGE('',*,*,#352,.T.);
#446=ORIENTED_EDGE('',*,*,#353,.T.);
#447=ORIENTED_EDGE('',*,*,#329,.T.);
#448=ORIENTED_EDGE('',*,*,#354,.F.);
#449=ORIENTED_EDGE('',*,*,#355,.F.);
#450=ORIENTED_EDGE('',*,*,#334,.F.);
#451=ORIENTED_EDGE('',*,*,#327,.T.);
#452=ORIENTED_EDGE('',*,*,#342,.F.);
#453=ORIENTED_EDGE('',*,*,#356,.T.);
#454=ORIENTED_EDGE('',*,*,#357,.F.);
#455=ORIENTED_EDGE('',*,*,#336,.F.);
#456=ORIENTED_EDGE('',*,*,#358,.T.);
#457=ORIENTED_EDGE('',*,*,#359,.F.);
#458=ORIENTED_EDGE('',*,*,#360,.F.);
#459=ORIENTED_EDGE('',*,*,#337,.F.);
#460=ORIENTED_EDGE('',*,*,#360,.T.);
#461=ORIENTED_EDGE('',*,*,#361,.F.);
#462=ORIENTED_EDGE('',*,*,#362,.F.);
#463=ORIENTED_EDGE('',*,*,#338,.F.);
#464=ORIENTED_EDGE('',*,*,#362,.T.);
#465=ORIENTED_EDGE('',*,*,#363,.F.);
#466=ORIENTED_EDGE('',*,*,#364,.F.);
#467=ORIENTED_EDGE('',*,*,#339,.F.);
#468=ORIENTED_EDGE('',*,*,#364,.T.);
#469=ORIENTED_EDGE('',*,*,#365,.F.);
#470=ORIENTED_EDGE('',*,*,#366,.F.);
#471=ORIENTED_EDGE('',*,*,#340,.F.);
#472=ORIENTED_EDGE('',*,*,#366,.T.);
#473=ORIENTED_EDGE('',*,*,#367,.F.);
#474=ORIENTED_EDGE('',*,*,#368,.F.);
#475=ORIENTED_EDGE('',*,*,#341,.F.);
#476=ORIENTED_EDGE('',*,*,#368,.T.);
#477=ORIENTED_EDGE('',*,*,#369,.F.);
#478=ORIENTED_EDGE('',*,*,#356,.F.);
#479=ORIENTED_EDGE('',*,*,#335,.F.);
#480=ORIENTED_EDGE('',*,*,#355,.T.);
#481=ORIENTED_EDGE('',*,*,#370,.F.);
#482=ORIENTED_EDGE('',*,*,#358,.F.);
#483=ORIENTED_EDGE('',*,*,#371,.T.);
#484=ORIENTED_EDGE('',*,*,#372,.T.);
#485=ORIENTED_EDGE('',*,*,#373,.T.);
#486=ORIENTED_EDGE('',*,*,#374,.T.);
#487=ORIENTED_EDGE('',*,*,#375,.T.);
#488=ORIENTED_EDGE('',*,*,#376,.T.);
#489=ORIENTED_EDGE('',*,*,#377,.T.);
#490=ORIENTED_EDGE('',*,*,#378,.T.);
#491=ORIENTED_EDGE('',*,*,#328,.T.);
#492=ORIENTED_EDGE('',*,*,#357,.T.);
#493=ORIENTED_EDGE('',*,*,#369,.T.);
#494=ORIENTED_EDGE('',*,*,#367,.T.);
#495=ORIENTED_EDGE('',*,*,#365,.T.);
#496=ORIENTED_EDGE('',*,*,#363,.T.);
#497=ORIENTED_EDGE('',*,*,#361,.T.);
#498=ORIENTED_EDGE('',*,*,#359,.T.);
#499=ORIENTED_EDGE('',*,*,#370,.T.);
#500=ORIENTED_EDGE('',*,*,#354,.T.);
#501=ORIENTED_EDGE('',*,*,#349,.F.);
#502=ORIENTED_EDGE('',*,*,#379,.T.);
#503=ORIENTED_EDGE('',*,*,#380,.F.);
#504=ORIENTED_EDGE('',*,*,#381,.F.);
#505=ORIENTED_EDGE('',*,*,#350,.F.);
#506=ORIENTED_EDGE('',*,*,#381,.T.);
#507=ORIENTED_EDGE('',*,*,#382,.F.);
#508=ORIENTED_EDGE('',*,*,#383,.F.);
#509=ORIENTED_EDGE('',*,*,#351,.F.);
#510=ORIENTED_EDGE('',*,*,#383,.T.);
#511=ORIENTED_EDGE('',*,*,#384,.F.);
#512=ORIENTED_EDGE('',*,*,#385,.F.);
#513=ORIENTED_EDGE('',*,*,#352,.F.);
#514=ORIENTED_EDGE('',*,*,#385,.T.);
#515=ORIENTED_EDGE('',*,*,#386,.F.);
#516=ORIENTED_EDGE('',*,*,#387,.F.);
#517=ORIENTED_EDGE('',*,*,#353,.F.);
#518=ORIENTED_EDGE('',*,*,#387,.T.);
#519=ORIENTED_EDGE('',*,*,#388,.F.);
#520=ORIENTED_EDGE('',*,*,#389,.F.);
#521=ORIENTED_EDGE('',*,*,#343,.F.);
#522=ORIENTED_EDGE('',*,*,#389,.T.);
#523=ORIENTED_EDGE('',*,*,#390,.F.);
#524=ORIENTED_EDGE('',*,*,#391,.F.);
#525=ORIENTED_EDGE('',*,*,#348,.F.);
#526=ORIENTED_EDGE('',*,*,#392,.T.);
#527=ORIENTED_EDGE('',*,*,#393,.F.);
#528=ORIENTED_EDGE('',*,*,#379,.F.);
#529=ORIENTED_EDGE('',*,*,#347,.F.);
#530=ORIENTED_EDGE('',*,*,#394,.T.);
#531=ORIENTED_EDGE('',*,*,#395,.F.);
#532=ORIENTED_EDGE('',*,*,#392,.F.);
#533=ORIENTED_EDGE('',*,*,#346,.F.);
#534=ORIENTED_EDGE('',*,*,#396,.T.);
#535=ORIENTED_EDGE('',*,*,#397,.F.);
#536=ORIENTED_EDGE('',*,*,#394,.F.);
#537=ORIENTED_EDGE('',*,*,#345,.F.);
#538=ORIENTED_EDGE('',*,*,#398,.T.);
#539=ORIENTED_EDGE('',*,*,#399,.F.);
#540=ORIENTED_EDGE('',*,*,#396,.F.);
#541=ORIENTED_EDGE('',*,*,#344,.F.);
#542=ORIENTED_EDGE('',*,*,#391,.T.);
#543=ORIENTED_EDGE('',*,*,#400,.F.);
#544=ORIENTED_EDGE('',*,*,#398,.F.);
#545=ORIENTED_EDGE('',*,*,#401,.F.);
#546=ORIENTED_EDGE('',*,*,#402,.T.);
#547=ORIENTED_EDGE('',*,*,#374,.F.);
#548=ORIENTED_EDGE('',*,*,#403,.F.);
#549=ORIENTED_EDGE('',*,*,#404,.T.);
#550=ORIENTED_EDGE('',*,*,#403,.T.);
#551=ORIENTED_EDGE('',*,*,#373,.F.);
#552=ORIENTED_EDGE('',*,*,#405,.F.);
#553=ORIENTED_EDGE('',*,*,#406,.F.);
#554=ORIENTED_EDGE('',*,*,#405,.T.);
#555=ORIENTED_EDGE('',*,*,#372,.F.);
#556=ORIENTED_EDGE('',*,*,#407,.F.);
#557=ORIENTED_EDGE('',*,*,#408,.T.);
#558=ORIENTED_EDGE('',*,*,#407,.T.);
#559=ORIENTED_EDGE('',*,*,#371,.F.);
#560=ORIENTED_EDGE('',*,*,#409,.F.);
#561=ORIENTED_EDGE('',*,*,#410,.F.);
#562=ORIENTED_EDGE('',*,*,#409,.T.);
#563=ORIENTED_EDGE('',*,*,#378,.F.);
#564=ORIENTED_EDGE('',*,*,#411,.F.);
#565=ORIENTED_EDGE('',*,*,#412,.T.);
#566=ORIENTED_EDGE('',*,*,#411,.T.);
#567=ORIENTED_EDGE('',*,*,#377,.F.);
#568=ORIENTED_EDGE('',*,*,#413,.F.);
#569=ORIENTED_EDGE('',*,*,#414,.F.);
#570=ORIENTED_EDGE('',*,*,#413,.T.);
#571=ORIENTED_EDGE('',*,*,#376,.F.);
#572=ORIENTED_EDGE('',*,*,#415,.F.);
#573=ORIENTED_EDGE('',*,*,#416,.T.);
#574=ORIENTED_EDGE('',*,*,#415,.T.);
#575=ORIENTED_EDGE('',*,*,#375,.F.);
#576=ORIENTED_EDGE('',*,*,#402,.F.);
#577=ORIENTED_EDGE('',*,*,#416,.F.);
#578=ORIENTED_EDGE('',*,*,#401,.T.);
#579=ORIENTED_EDGE('',*,*,#404,.F.);
#580=ORIENTED_EDGE('',*,*,#406,.T.);
#581=ORIENTED_EDGE('',*,*,#408,.F.);
#582=ORIENTED_EDGE('',*,*,#410,.T.);
#583=ORIENTED_EDGE('',*,*,#412,.F.);
#584=ORIENTED_EDGE('',*,*,#414,.T.);
#585=ORIENTED_EDGE('',*,*,#332,.T.);
#586=ORIENTED_EDGE('',*,*,#390,.T.);
#587=ORIENTED_EDGE('',*,*,#388,.T.);
#588=ORIENTED_EDGE('',*,*,#386,.T.);
#589=ORIENTED_EDGE('',*,*,#384,.T.);
#590=ORIENTED_EDGE('',*,*,#382,.T.);
#591=ORIENTED_EDGE('',*,*,#380,.T.);
#592=ORIENTED_EDGE('',*,*,#393,.T.);
#593=ORIENTED_EDGE('',*,*,#395,.T.);
#594=ORIENTED_EDGE('',*,*,#397,.T.);
#595=ORIENTED_EDGE('',*,*,#399,.T.);
#596=ORIENTED_EDGE('',*,*,#400,.T.);
#597=CYLINDRICAL_SURFACE('',#641,6.42923994776259);
#598=CYLINDRICAL_SURFACE('',#655,2.);
#599=CYLINDRICAL_SURFACE('',#658,2.00000000000001);
#600=CYLINDRICAL_SURFACE('',#661,2.00000000000003);
#601=CYLINDRICAL_SURFACE('',#663,2.);
#602=CYLINDRICAL_SURFACE('',#678,0.35000000000001);
#603=CYLINDRICAL_SURFACE('',#683,2.99999999999999);
#604=CYLINDRICAL_SURFACE('',#686,3.00000000000001);
#605=CYLINDRICAL_SURFACE('',#689,3.);
#606=CYLINDRICAL_SURFACE('',#692,3.);
#607=ADVANCED_FACE('',(#41),#597,.F.);
#608=ADVANCED_FACE('',(#42,#15),#19,.T.);
#609=ADVANCED_FACE('',(#43),#20,.T.);
#610=ADVANCED_FACE('',(#44),#21,.T.);
#611=ADVANCED_FACE('',(#45),#22,.T.);
#612=ADVANCED_FACE('',(#46),#598,.F.);
#613=ADVANCED_FACE('',(#47),#23,.T.);
#614=ADVANCED_FACE('',(#48),#599,.F.);
#615=ADVANCED_FACE('',(#49),#24,.T.);
#616=ADVANCED_FACE('',(#50),#600,.F.);
#617=ADVANCED_FACE('',(#51),#601,.F.);
#618=ADVANCED_FACE('',(#52,#16),#25,.T.);
#619=ADVANCED_FACE('',(#53),#26,.F.);
#620=ADVANCED_FACE('',(#54),#27,.F.);
#621=ADVANCED_FACE('',(#55),#28,.F.);
#622=ADVANCED_FACE('',(#56),#29,.F.);
#623=ADVANCED_FACE('',(#57),#30,.F.);
#624=ADVANCED_FACE('',(#58),#31,.F.);
#625=ADVANCED_FACE('',(#59),#32,.F.);
#626=ADVANCED_FACE('',(#60),#33,.F.);
#627=ADVANCED_FACE('',(#61),#602,.T.);
#628=ADVANCED_FACE('',(#62),#34,.F.);
#629=ADVANCED_FACE('',(#63),#35,.F.);
#630=ADVANCED_FACE('',(#64),#36,.T.);
#631=ADVANCED_FACE('',(#65),#603,.T.);
#632=ADVANCED_FACE('',(#66),#37,.T.);
#633=ADVANCED_FACE('',(#67),#604,.T.);
#634=ADVANCED_FACE('',(#68),#38,.T.);
#635=ADVANCED_FACE('',(#69),#605,.T.);
#636=ADVANCED_FACE('',(#70),#39,.T.);
#637=ADVANCED_FACE('',(#71),#606,.T.);
#638=ADVANCED_FACE('',(#72,#17,#18),#40,.F.);
#639=CLOSED_SHELL('',(#607,#608,#609,#610,#611,#612,#613,#614,#615,#616,
#617,#618,#619,#620,#621,#622,#623,#624,#625,#626,#627,#628,#629,#630,#631,
#632,#633,#634,#635,#636,#637,#638));
#640=AXIS2_PLACEMENT_3D('',#873,#695,#696);
#641=AXIS2_PLACEMENT_3D('',#874,#697,#698);
#642=AXIS2_PLACEMENT_3D('',#879,#700,#701);
#643=AXIS2_PLACEMENT_3D('',#883,#703,#704);
#644=AXIS2_PLACEMENT_3D('',#886,#706,#707);
#645=AXIS2_PLACEMENT_3D('',#887,#708,#709);
#646=AXIS2_PLACEMENT_3D('',#888,#710,#711);
#647=AXIS2_PLACEMENT_3D('',#892,#713,#714);
#648=AXIS2_PLACEMENT_3D('',#896,#716,#717);
#649=AXIS2_PLACEMENT_3D('',#900,#719,#720);
#650=AXIS2_PLACEMENT_3D('',#904,#722,#723);
#651=AXIS2_PLACEMENT_3D('',#914,#728,#729);
#652=AXIS2_PLACEMENT_3D('',#928,#737,#738);
#653=AXIS2_PLACEMENT_3D('',#932,#741,#742);
#654=AXIS2_PLACEMENT_3D('',#936,#745,#746);
#655=AXIS2_PLACEMENT_3D('',#942,#750,#751);
#656=AXIS2_PLACEMENT_3D('',#944,#752,#753);
#657=AXIS2_PLACEMENT_3D('',#946,#755,#756);
#658=AXIS2_PLACEMENT_3D('',#950,#759,#760);
#659=AXIS2_PLACEMENT_3D('',#952,#761,#762);
#660=AXIS2_PLACEMENT_3D('',#954,#764,#765);
#661=AXIS2_PLACEMENT_3D('',#958,#768,#769);
#662=AXIS2_PLACEMENT_3D('',#959,#770,#771);
#663=AXIS2_PLACEMENT_3D('',#960,#772,#773);
#664=AXIS2_PLACEMENT_3D('',#961,#774,#775);
#665=AXIS2_PLACEMENT_3D('',#962,#776,#777);
#666=AXIS2_PLACEMENT_3D('',#965,#778,#779);
#667=AXIS2_PLACEMENT_3D('',#969,#781,#782);
#668=AXIS2_PLACEMENT_3D('',#973,#784,#785);
#669=AXIS2_PLACEMENT_3D('',#977,#787,#788);
#670=AXIS2_PLACEMENT_3D('',#979,#790,#791);
#671=AXIS2_PLACEMENT_3D('',#985,#795,#796);
#672=AXIS2_PLACEMENT_3D('',#989,#799,#800);
#673=AXIS2_PLACEMENT_3D('',#993,#803,#804);
#674=AXIS2_PLACEMENT_3D('',#997,#807,#808);
#675=AXIS2_PLACEMENT_3D('',#1001,#811,#812);
#676=AXIS2_PLACEMENT_3D('',#1005,#815,#816);
#677=AXIS2_PLACEMENT_3D('',#1009,#819,#820);
#678=AXIS2_PLACEMENT_3D('',#1013,#823,#824);
#679=AXIS2_PLACEMENT_3D('',#1016,#826,#827);
#680=AXIS2_PLACEMENT_3D('',#1017,#828,#829);
#681=AXIS2_PLACEMENT_3D('',#1021,#832,#833);
#682=AXIS2_PLACEMENT_3D('',#1023,#835,#836);
#683=AXIS2_PLACEMENT_3D('',#1029,#840,#841);
#684=AXIS2_PLACEMENT_3D('',#1031,#842,#843);
#685=AXIS2_PLACEMENT_3D('',#1033,#845,#846);
#686=AXIS2_PLACEMENT_3D('',#1037,#849,#850);
#687=AXIS2_PLACEMENT_3D('',#1039,#851,#852);
#688=AXIS2_PLACEMENT_3D('',#1041,#854,#855);
#689=AXIS2_PLACEMENT_3D('',#1045,#858,#859);
#690=AXIS2_PLACEMENT_3D('',#1047,#860,#861);
#691=AXIS2_PLACEMENT_3D('',#1049,#863,#864);
#692=AXIS2_PLACEMENT_3D('',#1053,#867,#868);
#693=AXIS2_PLACEMENT_3D('',#1054,#869,#870);
#694=AXIS2_PLACEMENT_3D('',#1055,#871,#872);
#695=DIRECTION('axis',(0.,0.,1.));
#696=DIRECTION('refdir',(1.,0.,0.));
#697=DIRECTION('center_axis',(0.,0.,-1.));
#698=DIRECTION('ref_axis',(-1.,0.,0.));
#699=DIRECTION('',(0.,0.,-1.));
#700=DIRECTION('center_axis',(0.,0.,-1.));
#701=DIRECTION('ref_axis',(-1.,0.,0.));
#702=DIRECTION('',(0.,0.,1.));
#703=DIRECTION('center_axis',(0.,0.,-1.));
#704=DIRECTION('ref_axis',(-1.,0.,0.));
#705=DIRECTION('',(0.,0.,-1.));
#706=DIRECTION('center_axis',(0.,0.,1.));
#707=DIRECTION('ref_axis',(-1.,0.,0.));
#708=DIRECTION('center_axis',(0.,0.,-1.));
#709=DIRECTION('ref_axis',(-1.,0.,0.));
#710=DIRECTION('center_axis',(0.,0.,1.));
#711=DIRECTION('ref_axis',(1.,0.,0.));
#712=DIRECTION('',(-1.,0.,0.));
#713=DIRECTION('center_axis',(0.,0.,1.));
#714=DIRECTION('ref_axis',(0.,1.,0.));
#715=DIRECTION('',(0.,-1.,0.));
#716=DIRECTION('center_axis',(0.,0.,1.));
#717=DIRECTION('ref_axis',(-1.,0.,0.));
#718=DIRECTION('',(1.,9.57088814332031E-17,0.));
#719=DIRECTION('center_axis',(0.,0.,1.));
#720=DIRECTION('ref_axis',(0.,-1.,0.));
#721=DIRECTION('',(0.,1.,0.));
#722=DIRECTION('center_axis',(0.,0.,1.));
#723=DIRECTION('ref_axis',(1.,0.,0.));
#724=DIRECTION('',(-1.,0.,0.));
#725=DIRECTION('',(-0.707106876558257,-0.707106685814825,0.));
#726=DIRECTION('',(4.9991353674342E-8,-0.999999999999999,0.));
#727=DIRECTION('',(-1.,7.190985899594E-16,0.));
#728=DIRECTION('center_axis',(0.,0.,1.));
#729=DIRECTION('ref_axis',(-2.53765262771457E-14,1.,0.));
#730=DIRECTION('',(0.,-1.,0.));
#731=DIRECTION('',(-1.,0.,0.));
#732=DIRECTION('',(0.,1.,0.));
#733=DIRECTION('',(0.707106781186546,0.707106781186549,0.));
#734=DIRECTION('',(9.23535295458048E-16,1.,0.));
#735=DIRECTION('',(1.,0.,0.));
#736=DIRECTION('',(0.,-1.,0.));
#737=DIRECTION('center_axis',(0.,-1.,0.));
#738=DIRECTION('ref_axis',(1.,0.,0.));
#739=DIRECTION('',(1.,0.,0.));
#740=DIRECTION('',(0.,0.,1.));
#741=DIRECTION('center_axis',(0.,-1.,0.));
#742=DIRECTION('ref_axis',(1.,0.,0.));
#743=DIRECTION('',(0.,0.,1.));
#744=DIRECTION('',(1.,0.,0.));
#745=DIRECTION('center_axis',(1.,0.,0.));
#746=DIRECTION('ref_axis',(0.,1.,0.));
#747=DIRECTION('',(0.,0.,1.));
#748=DIRECTION('',(0.,1.,0.));
#749=DIRECTION('',(0.,0.,1.));
#750=DIRECTION('center_axis',(0.,0.,1.));
#751=DIRECTION('ref_axis',(-1.,0.,0.));
#752=DIRECTION('center_axis',(0.,0.,-1.));
#753=DIRECTION('ref_axis',(-1.,0.,0.));
#754=DIRECTION('',(0.,0.,1.));
#755=DIRECTION('center_axis',(-9.57088814332031E-17,1.,0.));
#756=DIRECTION('ref_axis',(-1.,-9.57088814332031E-17,0.));
#757=DIRECTION('',(-1.,-9.57088814332031E-17,0.));
#758=DIRECTION('',(0.,0.,1.));
#759=DIRECTION('center_axis',(0.,0.,1.));
#760=DIRECTION('ref_axis',(0.,-1.,0.));
#761=DIRECTION('center_axis',(0.,0.,-1.));
#762=DIRECTION('ref_axis',(0.,-1.,0.));
#763=DIRECTION('',(0.,0.,1.));
#764=DIRECTION('center_axis',(-1.,0.,0.));
#765=DIRECTION('ref_axis',(0.,-1.,0.));
#766=DIRECTION('',(0.,-1.,0.));
#767=DIRECTION('',(0.,0.,1.));
#768=DIRECTION('center_axis',(0.,0.,1.));
#769=DIRECTION('ref_axis',(1.,0.,0.));
#770=DIRECTION('center_axis',(0.,0.,-1.));
#771=DIRECTION('ref_axis',(1.,0.,0.));
#772=DIRECTION('center_axis',(0.,0.,1.));
#773=DIRECTION('ref_axis',(0.,1.,0.));
#774=DIRECTION('center_axis',(0.,0.,-1.));
#775=DIRECTION('ref_axis',(0.,1.,0.));
#776=DIRECTION('center_axis',(0.,0.,1.));
#777=DIRECTION('ref_axis',(-1.,0.,0.));
#778=DIRECTION('center_axis',(0.,0.,1.));
#779=DIRECTION('ref_axis',(5.92118946466751E-15,-1.,0.));
#780=DIRECTION('',(0.,1.,0.));
#781=DIRECTION('center_axis',(0.,0.,1.));
#782=DIRECTION('ref_axis',(1.,-7.40148683083445E-15,0.));
#783=DIRECTION('',(-1.,0.,0.));
#784=DIRECTION('center_axis',(0.,0.,1.));
#785=DIRECTION('ref_axis',(0.,1.,0.));
#786=DIRECTION('',(-6.00120553851436E-17,-1.,0.));
#787=DIRECTION('center_axis',(0.,0.,1.));
#788=DIRECTION('ref_axis',(-1.,-1.48029736616688E-15,0.));
#789=DIRECTION('',(1.,-2.46716227694479E-16,0.));
#790=DIRECTION('center_axis',(-1.,0.,0.));
#791=DIRECTION('ref_axis',(0.,1.,0.));
#792=DIRECTION('',(0.,0.,-1.));
#793=DIRECTION('',(0.,-1.,0.));
#794=DIRECTION('',(0.,0.,-1.));
#795=DIRECTION('center_axis',(-0.707106781186549,0.707106781186546,0.));
#796=DIRECTION('ref_axis',(0.707106781186546,0.707106781186549,0.));
#797=DIRECTION('',(-0.707106781186546,-0.707106781186549,0.));
#798=DIRECTION('',(0.,0.,-1.));
#799=DIRECTION('center_axis',(-1.,9.23535295458048E-16,0.));
#800=DIRECTION('ref_axis',(9.23535295458048E-16,1.,0.));
#801=DIRECTION('',(-9.23535295458048E-16,-1.,0.));
#802=DIRECTION('',(0.,0.,-1.));
#803=DIRECTION('center_axis',(0.,1.,0.));
#804=DIRECTION('ref_axis',(1.,0.,0.));
#805=DIRECTION('',(-1.,0.,0.));
#806=DIRECTION('',(0.,0.,-1.));
#807=DIRECTION('center_axis',(1.,0.,0.));
#808=DIRECTION('ref_axis',(0.,-1.,0.));
#809=DIRECTION('',(0.,1.,0.));
#810=DIRECTION('',(0.,0.,-1.));
#811=DIRECTION('center_axis',(0.707106685814825,-0.707106876558257,0.));
#812=DIRECTION('ref_axis',(-0.707106876558257,-0.707106685814825,0.));
#813=DIRECTION('',(0.707106876558257,0.707106685814825,0.));
#814=DIRECTION('',(0.,0.,-1.));
#815=DIRECTION('center_axis',(0.,-1.,0.));
#816=DIRECTION('ref_axis',(-1.,0.,0.));
#817=DIRECTION('',(0.,0.,-1.));
#818=DIRECTION('',(1.,0.,0.));
#819=DIRECTION('center_axis',(1.,0.,0.));
#820=DIRECTION('ref_axis',(0.,-1.,0.));
#821=DIRECTION('',(0.,0.,-1.));
#822=DIRECTION('',(0.,1.,0.));
#823=DIRECTION('center_axis',(0.,0.,-1.));
#824=DIRECTION('ref_axis',(-2.53765262771457E-14,1.,0.));
#825=DIRECTION('',(0.,0.,-1.));
#826=DIRECTION('center_axis',(0.,0.,-1.));
#827=DIRECTION('ref_axis',(-2.53765262771457E-14,1.,0.));
#828=DIRECTION('center_axis',(-7.190985899594E-16,-1.,0.));
#829=DIRECTION('ref_axis',(-1.,7.190985899594E-16,0.));
#830=DIRECTION('',(0.,0.,-1.));
#831=DIRECTION('',(1.,-7.190985899594E-16,0.));
#832=DIRECTION('center_axis',(0.999999999999999,4.9991353674342E-8,0.));
#833=DIRECTION('ref_axis',(4.9991353674342E-8,-0.999999999999999,0.));
#834=DIRECTION('',(-4.9991353674342E-8,0.999999999999999,0.));
#835=DIRECTION('center_axis',(0.,1.,0.));
#836=DIRECTION('ref_axis',(-1.,0.,0.));
#837=DIRECTION('',(1.,0.,0.));
#838=DIRECTION('',(0.,0.,1.));
#839=DIRECTION('',(0.,0.,1.));
#840=DIRECTION('center_axis',(0.,0.,1.));
#841=DIRECTION('ref_axis',(1.,1.48029736616688E-15,0.));
#842=DIRECTION('center_axis',(0.,0.,1.));
#843=DIRECTION('ref_axis',(1.,1.48029736616688E-15,0.));
#844=DIRECTION('',(0.,0.,1.));
#845=DIRECTION('center_axis',(1.,0.,0.));
#846=DIRECTION('ref_axis',(0.,1.,0.));
#847=DIRECTION('',(0.,-1.,0.));
#848=DIRECTION('',(0.,0.,1.));
#849=DIRECTION('center_axis',(0.,0.,1.));
#850=DIRECTION('ref_axis',(5.92118946466749E-15,-1.,0.));
#851=DIRECTION('center_axis',(0.,0.,1.));
#852=DIRECTION('ref_axis',(5.92118946466749E-15,-1.,0.));
#853=DIRECTION('',(0.,0.,1.));
#854=DIRECTION('center_axis',(-3.28954970259305E-16,-1.,0.));
#855=DIRECTION('ref_axis',(1.,-3.28954970259305E-16,0.));
#856=DIRECTION('',(-1.,3.28954970259305E-16,0.));
#857=DIRECTION('',(0.,0.,1.));
#858=DIRECTION('center_axis',(0.,0.,1.));
#859=DIRECTION('ref_axis',(-1.,0.,0.));
#860=DIRECTION('center_axis',(0.,0.,1.));
#861=DIRECTION('ref_axis',(-1.,0.,0.));
#862=DIRECTION('',(0.,0.,1.));
#863=DIRECTION('center_axis',(-1.,6.00120553851436E-17,0.));
#864=DIRECTION('ref_axis',(-6.00120553851436E-17,-1.,0.));
#865=DIRECTION('',(6.00120553851436E-17,1.,0.));
#866=DIRECTION('',(0.,0.,1.));
#867=DIRECTION('center_axis',(0.,0.,1.));
#868=DIRECTION('ref_axis',(0.,1.,0.));
#869=DIRECTION('center_axis',(0.,0.,1.));
#870=DIRECTION('ref_axis',(0.,1.,0.));
#871=DIRECTION('center_axis',(0.,0.,1.));
#872=DIRECTION('ref_axis',(1.,0.,0.));
#873=CARTESIAN_POINT('',(0.,0.,0.));
#874=CARTESIAN_POINT('Origin',(59.9769898294451,33.5166186587286,2.16));
#875=CARTESIAN_POINT('',(65.3186861916899,37.0945239508635,2.16));
#876=CARTESIAN_POINT('',(65.3186861916899,37.0945239508635,1.16));
#877=CARTESIAN_POINT('',(65.3186861916899,37.0945239508635,2.16));
#878=CARTESIAN_POINT('',(54.6352934672004,37.0945239508635,2.16));
#879=CARTESIAN_POINT('Origin',(59.9769898294451,33.5166186587286,2.16));
#880=CARTESIAN_POINT('',(54.6352934672004,37.0945239508635,1.16));
#881=CARTESIAN_POINT('',(54.6352934672004,37.0945239508635,2.16));
#882=CARTESIAN_POINT('',(66.4062297772077,33.5166186587286,1.16));
#883=CARTESIAN_POINT('Origin',(59.9769898294451,33.5166186587286,1.16));
#884=CARTESIAN_POINT('',(66.4062297772077,33.5166186587286,-0.44));
#885=CARTESIAN_POINT('',(66.4062297772077,33.5166186587286,2.16));
#886=CARTESIAN_POINT('Origin',(59.9769898294451,33.5166186587286,-0.44));
#887=CARTESIAN_POINT('Origin',(59.9769898294451,33.5166186587286,1.16));
#888=CARTESIAN_POINT('Origin',(59.9769898294452,1.8945239508635,1.16));
#889=CARTESIAN_POINT('',(36.7769898294451,37.0945239508635,1.16));
#890=CARTESIAN_POINT('',(48.3769898294452,37.0945239508635,1.16));
#891=CARTESIAN_POINT('',(34.7769898294451,35.0945239508635,1.16));
#892=CARTESIAN_POINT('Origin',(36.7769898294451,35.0945239508635,1.16));
#893=CARTESIAN_POINT('',(34.7769898294451,-31.3054760491365,1.16));
#894=CARTESIAN_POINT('',(34.7769898294451,-14.7054760491365,1.16));
#895=CARTESIAN_POINT('',(36.7769898294451,-33.3054760491365,1.16));
#896=CARTESIAN_POINT('Origin',(36.7769898294451,-31.3054760491365,1.16));
#897=CARTESIAN_POINT('',(83.1769898294451,-33.3054760491365,1.16));
#898=CARTESIAN_POINT('',(71.5769898294452,-33.3054760491365,1.16));
#899=CARTESIAN_POINT('',(85.1769898294452,-31.3054760491365,1.16));
#900=CARTESIAN_POINT('Origin',(83.1769898294451,-31.3054760491365,1.16));
#901=CARTESIAN_POINT('',(85.1769898294452,35.0945239508635,1.16));
#902=CARTESIAN_POINT('',(85.1769898294452,18.4945239508635,1.16));
#903=CARTESIAN_POINT('',(83.1769898294451,37.0945239508635,1.16));
#904=CARTESIAN_POINT('Origin',(83.1769898294451,35.0945239508635,1.16));
#905=CARTESIAN_POINT('',(48.3769898294452,37.0945239508635,1.16));
#906=CARTESIAN_POINT('',(74.7427178294452,14.7774091830828,1.16));
#907=CARTESIAN_POINT('',(67.0927173561691,7.12741077340898,1.16));
#908=CARTESIAN_POINT('',(67.8305635256195,7.86525674382398,1.16));
#909=CARTESIAN_POINT('',(67.0927178294451,-2.33974804913649,1.16));
#910=CARTESIAN_POINT('',(67.0927174869686,4.51096753999867,1.16));
#911=CARTESIAN_POINT('',(62.4609898294452,-2.33974804913649,1.16));
#912=CARTESIAN_POINT('',(63.5348538294452,-2.33974804913649,1.16));
#913=CARTESIAN_POINT('',(62.1109898294451,-2.68974804913649,1.16));
#914=CARTESIAN_POINT('Origin',(62.4609898294452,-2.6897480491365,1.16));
#915=CARTESIAN_POINT('',(62.1109898294451,-20.8714760491365,1.16));
#916=CARTESIAN_POINT('',(62.1109898294451,-0.397612049136495,1.16));
#917=CARTESIAN_POINT('',(45.2109898294452,-20.8714760491365,1.16));
#918=CARTESIAN_POINT('',(61.0439898294452,-20.8714760491365,1.16));
#919=CARTESIAN_POINT('',(45.2109898294452,6.91136666333811,1.16));
#920=CARTESIAN_POINT('',(45.2109898294452,-9.4884760491365,1.16));
#921=CARTESIAN_POINT('',(53.3427178294451,15.0430946633381,1.16));
#922=CARTESIAN_POINT('',(47.6482791513265,9.34865598521946,1.16));
#923=CARTESIAN_POINT('',(53.3427178294452,24.6602519508635,1.16));
#924=CARTESIAN_POINT('',(53.3427178294451,8.46880930710082,1.16));
#925=CARTESIAN_POINT('',(74.7427178294452,24.6602519508635,1.16));
#926=CARTESIAN_POINT('',(56.6598538294452,24.6602519508635,1.16));
#927=CARTESIAN_POINT('',(74.7427178294452,13.2773879508635,1.16));
#928=CARTESIAN_POINT('Origin',(36.7769898294451,37.0945239508635,1.16));
#929=CARTESIAN_POINT('',(36.7769898294451,37.0945239508635,2.16));
#930=CARTESIAN_POINT('',(36.7769898294451,37.0945239508635,2.16));
#931=CARTESIAN_POINT('',(36.7769898294451,37.0945239508635,1.16));
#932=CARTESIAN_POINT('Origin',(36.7769898294451,37.0945239508635,1.16));
#933=CARTESIAN_POINT('',(83.1769898294451,37.0945239508635,2.16));
#934=CARTESIAN_POINT('',(83.1769898294451,37.0945239508635,1.16));
#935=CARTESIAN_POINT('',(36.7769898294451,37.0945239508635,2.16));
#936=CARTESIAN_POINT('Origin',(34.7769898294451,-31.3054760491365,1.16));
#937=CARTESIAN_POINT('',(34.7769898294451,35.0945239508635,2.16));
#938=CARTESIAN_POINT('',(34.7769898294451,35.0945239508635,1.16));
#939=CARTESIAN_POINT('',(34.7769898294451,-31.3054760491365,2.16));
#940=CARTESIAN_POINT('',(34.7769898294451,-31.3054760491365,2.16));
#941=CARTESIAN_POINT('',(34.7769898294451,-31.3054760491365,1.16));
#942=CARTESIAN_POINT('Origin',(36.7769898294451,-31.3054760491365,1.16));
#943=CARTESIAN_POINT('',(36.7769898294451,-33.3054760491365,2.16));
#944=CARTESIAN_POINT('Origin',(36.7769898294451,-31.3054760491365,2.16));
#945=CARTESIAN_POINT('',(36.7769898294451,-33.3054760491365,1.16));
#946=CARTESIAN_POINT('Origin',(83.1769898294451,-33.3054760491365,1.16));
#947=CARTESIAN_POINT('',(83.1769898294451,-33.3054760491365,2.16));
#948=CARTESIAN_POINT('',(83.1769898294451,-33.3054760491365,2.16));
#949=CARTESIAN_POINT('',(83.1769898294451,-33.3054760491365,1.16));
#950=CARTESIAN_POINT('Origin',(83.1769898294451,-31.3054760491365,1.16));
#951=CARTESIAN_POINT('',(85.1769898294452,-31.3054760491365,2.16));
#952=CARTESIAN_POINT('Origin',(83.1769898294451,-31.3054760491365,2.16));
#953=CARTESIAN_POINT('',(85.1769898294452,-31.3054760491365,1.16));
#954=CARTESIAN_POINT('Origin',(85.1769898294452,35.0945239508635,1.16));
#955=CARTESIAN_POINT('',(85.1769898294452,35.0945239508635,2.16));
#956=CARTESIAN_POINT('',(85.1769898294452,35.0945239508635,2.16));
#957=CARTESIAN_POINT('',(85.1769898294452,35.0945239508635,1.16));
#958=CARTESIAN_POINT('Origin',(83.1769898294451,35.0945239508635,1.16));
#959=CARTESIAN_POINT('Origin',(83.1769898294451,35.0945239508635,2.16));
#960=CARTESIAN_POINT('Origin',(36.7769898294451,35.0945239508635,1.16));
#961=CARTESIAN_POINT('Origin',(36.7769898294451,35.0945239508635,2.16));
#962=CARTESIAN_POINT('Origin',(59.9769898294452,1.89452395086349,2.16));
#963=CARTESIAN_POINT('',(86.9769898294452,-38.1054760491365,2.16));
#964=CARTESIAN_POINT('',(89.9769898294452,-35.1054760491365,2.16));
#965=CARTESIAN_POINT('Origin',(86.9769898294452,-35.1054760491365,2.16));
#966=CARTESIAN_POINT('',(89.9769898294452,38.8945239508635,2.16));
#967=CARTESIAN_POINT('',(89.9769898294452,38.8945239508635,2.16));
#968=CARTESIAN_POINT('',(86.9769898294452,41.8945239508635,2.16));
#969=CARTESIAN_POINT('Origin',(86.9769898294452,38.8945239508635,2.16));
#970=CARTESIAN_POINT('',(32.9769898294451,41.8945239508635,2.16));
#971=CARTESIAN_POINT('',(32.9769898294451,41.8945239508635,2.16));
#972=CARTESIAN_POINT('',(29.9769898294451,38.8945239508635,2.16));
#973=CARTESIAN_POINT('Origin',(32.9769898294451,38.8945239508635,2.16));
#974=CARTESIAN_POINT('',(29.9769898294451,-35.1054760491365,2.16));
#975=CARTESIAN_POINT('',(29.9769898294451,-35.1054760491365,2.16));
#976=CARTESIAN_POINT('',(32.9769898294451,-38.1054760491365,2.16));
#977=CARTESIAN_POINT('Origin',(32.9769898294451,-35.1054760491365,2.16));
#978=CARTESIAN_POINT('',(86.9769898294452,-38.1054760491365,2.16));
#979=CARTESIAN_POINT('Origin',(45.2109898294452,-20.8714760491365,1.56));
#980=CARTESIAN_POINT('',(45.2109898294452,-20.8714760491365,-0.44));
#981=CARTESIAN_POINT('',(45.2109898294452,-20.8714760491365,1.56));
#982=CARTESIAN_POINT('',(45.2109898294452,6.91136666333811,-0.44));
#983=CARTESIAN_POINT('',(45.2109898294452,-9.4884760491365,-0.44));
#984=CARTESIAN_POINT('',(45.2109898294452,6.91136666333811,1.56));
#985=CARTESIAN_POINT('Origin',(45.2109898294452,6.91136666333812,1.56));
#986=CARTESIAN_POINT('',(53.3427178294451,15.0430946633381,-0.44));
#987=CARTESIAN_POINT('',(47.6482791513265,9.34865598521946,-0.44));
#988=CARTESIAN_POINT('',(53.3427178294451,15.0430946633381,1.56));
#989=CARTESIAN_POINT('Origin',(53.3427178294451,15.0430946633381,1.56));
#990=CARTESIAN_POINT('',(53.3427178294452,24.6602519508635,-0.44));
#991=CARTESIAN_POINT('',(53.3427178294451,8.46880930710082,-0.44));
#992=CARTESIAN_POINT('',(53.3427178294452,24.6602519508635,1.56));
#993=CARTESIAN_POINT('Origin',(53.3427178294452,24.6602519508635,1.56));
#994=CARTESIAN_POINT('',(74.7427178294452,24.6602519508635,-0.44));
#995=CARTESIAN_POINT('',(56.6598538294452,24.6602519508635,-0.44));
#996=CARTESIAN_POINT('',(74.7427178294452,24.6602519508635,1.56));
#997=CARTESIAN_POINT('Origin',(74.7427178294452,24.6602519508635,1.56));
#998=CARTESIAN_POINT('',(74.7427178294452,14.7774091830828,-0.44));
#999=CARTESIAN_POINT('',(74.7427178294452,13.2773879508635,-0.44));
#1000=CARTESIAN_POINT('',(74.7427178294452,14.7774091830828,1.56));
#1001=CARTESIAN_POINT('Origin',(74.7427178294452,14.7774091830828,1.56));
#1002=CARTESIAN_POINT('',(67.0927173561691,7.12741077340898,-0.44));
#1003=CARTESIAN_POINT('',(67.8305635256195,7.86525674382398,-0.44));
#1004=CARTESIAN_POINT('',(67.0927173561691,7.12741077340898,1.56));
#1005=CARTESIAN_POINT('Origin',(62.1109898294451,-20.8714760491365,1.56));
#1006=CARTESIAN_POINT('',(62.1109898294451,-20.8714760491365,-0.44));
#1007=CARTESIAN_POINT('',(62.1109898294451,-20.8714760491365,1.56));
#1008=CARTESIAN_POINT('',(61.0439898294452,-20.8714760491365,-0.44));
#1009=CARTESIAN_POINT('Origin',(62.1109898294451,-2.68974804913649,1.56));
#1010=CARTESIAN_POINT('',(62.1109898294451,-2.68974804913649,-0.44));
#1011=CARTESIAN_POINT('',(62.1109898294451,-2.68974804913649,1.56));
#1012=CARTESIAN_POINT('',(62.1109898294451,-0.397612049136495,-0.44));
#1013=CARTESIAN_POINT('Origin',(62.4609898294452,-2.6897480491365,1.56));
#1014=CARTESIAN_POINT('',(62.4609898294452,-2.33974804913649,-0.44));
#1015=CARTESIAN_POINT('',(62.4609898294452,-2.33974804913649,1.56));
#1016=CARTESIAN_POINT('Origin',(62.4609898294452,-2.6897480491365,-0.44));
#1017=CARTESIAN_POINT('Origin',(67.0927178294451,-2.33974804913649,1.56));
#1018=CARTESIAN_POINT('',(67.0927178294451,-2.33974804913649,-0.44));
#1019=CARTESIAN_POINT('',(67.0927178294451,-2.33974804913649,1.56));
#1020=CARTESIAN_POINT('',(63.5348538294452,-2.33974804913649,-0.44));
#1021=CARTESIAN_POINT('Origin',(67.0927173561691,7.12741077340898,1.56));
#1022=CARTESIAN_POINT('',(67.0927174869686,4.51096753999867,-0.44));
#1023=CARTESIAN_POINT('Origin',(86.9769898294452,41.8945239508635,-0.44));
#1024=CARTESIAN_POINT('',(32.9769898294451,41.8945239508635,-0.44));
#1025=CARTESIAN_POINT('',(86.9769898294452,41.8945239508635,-0.44));
#1026=CARTESIAN_POINT('',(32.9769898294451,41.8945239508635,-0.44));
#1027=CARTESIAN_POINT('',(32.9769898294451,41.8945239508635,-0.44));
#1028=CARTESIAN_POINT('',(86.9769898294452,41.8945239508635,-0.44));
#1029=CARTESIAN_POINT('Origin',(86.9769898294452,38.8945239508635,-0.44));
#1030=CARTESIAN_POINT('',(89.9769898294451,38.8945239508635,-0.44));
#1031=CARTESIAN_POINT('Origin',(86.9769898294452,38.8945239508635,-0.44));
#1032=CARTESIAN_POINT('',(89.9769898294451,38.8945239508635,-0.44));
#1033=CARTESIAN_POINT('Origin',(89.9769898294451,-35.1054760491365,-0.44));
#1034=CARTESIAN_POINT('',(89.9769898294452,-35.1054760491365,-0.44));
#1035=CARTESIAN_POINT('',(89.9769898294451,38.8945239508635,-0.44));
#1036=CARTESIAN_POINT('',(89.9769898294452,-35.1054760491365,-0.44));
#1037=CARTESIAN_POINT('Origin',(86.9769898294452,-35.1054760491365,-0.44));
#1038=CARTESIAN_POINT('',(86.9769898294452,-38.1054760491365,-0.44));
#1039=CARTESIAN_POINT('Origin',(86.9769898294452,-35.1054760491365,-0.44));
#1040=CARTESIAN_POINT('',(86.9769898294452,-38.1054760491365,-0.44));
#1041=CARTESIAN_POINT('Origin',(32.9769898294451,-38.1054760491365,-0.44));
#1042=CARTESIAN_POINT('',(32.9769898294451,-38.1054760491365,-0.44));
#1043=CARTESIAN_POINT('',(86.9769898294452,-38.1054760491365,-0.44));
#1044=CARTESIAN_POINT('',(32.9769898294451,-38.1054760491365,-0.44));
#1045=CARTESIAN_POINT('Origin',(32.9769898294451,-35.1054760491365,-0.44));
#1046=CARTESIAN_POINT('',(29.9769898294451,-35.1054760491365,-0.44));
#1047=CARTESIAN_POINT('Origin',(32.9769898294451,-35.1054760491365,-0.44));
#1048=CARTESIAN_POINT('',(29.9769898294451,-35.1054760491365,-0.44));
#1049=CARTESIAN_POINT('Origin',(29.9769898294452,38.8945239508635,-0.44));
#1050=CARTESIAN_POINT('',(29.9769898294451,38.8945239508635,-0.44));
#1051=CARTESIAN_POINT('',(29.9769898294451,-35.1054760491365,-0.44));
#1052=CARTESIAN_POINT('',(29.9769898294451,38.8945239508635,-0.44));
#1053=CARTESIAN_POINT('Origin',(32.9769898294451,38.8945239508635,-0.44));
#1054=CARTESIAN_POINT('Origin',(32.9769898294451,38.8945239508635,-0.44));
#1055=CARTESIAN_POINT('Origin',(59.9769898294452,1.8945239508635,-0.44));
#1056=UNCERTAINTY_MEASURE_WITH_UNIT(LENGTH_MEASURE(0.01),#1060,
'DISTANCE_ACCURACY_VALUE',
'Maximum model space distance between geometric entities at asserted c
onnectivities');
#1057=UNCERTAINTY_MEASURE_WITH_UNIT(LENGTH_MEASURE(0.01),#1060,
'DISTANCE_ACCURACY_VALUE',
'Maximum model space distance between geometric entities at asserted c
onnectivities');
#1058=(
GEOMETRIC_REPRESENTATION_CONTEXT(3)
GLOBAL_UNCERTAINTY_ASSIGNED_CONTEXT((#1056))
GLOBAL_UNIT_ASSIGNED_CONTEXT((#1060,#1061,#1062))
REPRESENTATION_CONTEXT('','3D')
);
#1059=(
GEOMETRIC_REPRESENTATION_CONTEXT(3)
GLOBAL_UNCERTAINTY_ASSIGNED_CONTEXT((#1057))
GLOBAL_UNIT_ASSIGNED_CONTEXT((#1060,#1061,#1062))
REPRESENTATION_CONTEXT('','3D')
);
#1060=(
LENGTH_UNIT()
NAMED_UNIT(*)
SI_UNIT(.MILLI.,.METRE.)
);
#1061=(
NAMED_UNIT(*)
PLANE_ANGLE_UNIT()
SI_UNIT($,.RADIAN.)
);
#1062=(
NAMED_UNIT(*)
SI_UNIT($,.STERADIAN.)
SOLID_ANGLE_UNIT()
);
#1063=SHAPE_DEFINITION_REPRESENTATION(#1064,#1065);
#1064=PRODUCT_DEFINITION_SHAPE('',$,#1067);
#1065=SHAPE_REPRESENTATION('',(#640),#1058);
#1066=PRODUCT_DEFINITION_CONTEXT('part definition',#1071,'design');
#1067=PRODUCT_DEFINITION('USB-GC','USB-GC v19',#1068,#1066);
#1068=PRODUCT_DEFINITION_FORMATION('',$,#1073);
#1069=PRODUCT_RELATED_PRODUCT_CATEGORY('USB-GC v19','USB-GC v19',(#1073));
#1070=APPLICATION_PROTOCOL_DEFINITION('international standard',
'automotive_design',2009,#1071);
#1071=APPLICATION_CONTEXT(
'Core Data for Automotive Mechanical Design Process');
#1072=PRODUCT_CONTEXT('part definition',#1071,'mechanical');
#1073=PRODUCT('USB-GC','USB-GC v19',$,(#1072));
#1074=PRESENTATION_STYLE_ASSIGNMENT((#1077));
#1075=PRESENTATION_STYLE_ASSIGNMENT((#1078));
#1076=PRESENTATION_STYLE_ASSIGNMENT((#1079));
#1077=SURFACE_STYLE_USAGE(.BOTH.,#1080);
#1078=SURFACE_STYLE_USAGE(.BOTH.,#1081);
#1079=SURFACE_STYLE_USAGE(.BOTH.,#1082);
#1080=SURFACE_SIDE_STYLE('',(#1083));
#1081=SURFACE_SIDE_STYLE('',(#1084));
#1082=SURFACE_SIDE_STYLE('',(#1085));
#1083=SURFACE_STYLE_FILL_AREA(#1086);
#1084=SURFACE_STYLE_FILL_AREA(#1087);
#1085=SURFACE_STYLE_FILL_AREA(#1088);
#1086=FILL_AREA_STYLE('Steel - Satin',(#1089));
#1087=FILL_AREA_STYLE('Plastic - Matte (Green)',(#1090));
#1088=FILL_AREA_STYLE('ABS (White)',(#1091));
#1089=FILL_AREA_STYLE_COLOUR('Steel - Satin',#1092);
#1090=FILL_AREA_STYLE_COLOUR('Plastic - Matte (Green)',#1093);
#1091=FILL_AREA_STYLE_COLOUR('ABS (White)',#1094);
#1092=COLOUR_RGB('Steel - Satin',0.627450980392157,0.627450980392157,0.627450980392157);
#1093=COLOUR_RGB('Plastic - Matte (Green)',0.266666666666667,0.588235294117647,
0.282352941176471);
#1094=COLOUR_RGB('ABS (White)',0.964705882352941,0.964705882352941,0.952941176470588);
ENDSEC;
END-ISO-10303-21;
